<?xml version="1.0" encoding="utf-8" standalone="no"?>
<!DOCTYPE svg PUBLIC "-//W3C//DTD SVG 1.1//EN"
  "http://www.w3.org/Graphics/SVG/1.1/DTD/svg11.dtd">
<!-- Created with matplotlib (https://matplotlib.org/) -->
<svg height="360pt" version="1.1" viewBox="0 0 576 360" width="576pt" xmlns="http://www.w3.org/2000/svg" xmlns:xlink="http://www.w3.org/1999/xlink">
 <metadata>
  <rdf:RDF xmlns:cc="http://creativecommons.org/ns#" xmlns:dc="http://purl.org/dc/elements/1.1/" xmlns:rdf="http://www.w3.org/1999/02/22-rdf-syntax-ns#">
   <cc:Work>
    <dc:type rdf:resource="http://purl.org/dc/dcmitype/StillImage"/>
    <dc:date>2021-08-15T15:36:35.119574</dc:date>
    <dc:format>image/svg+xml</dc:format>
    <dc:creator>
     <cc:Agent>
      <dc:title>Matplotlib v3.3.2, https://matplotlib.org/</dc:title>
     </cc:Agent>
    </dc:creator>
   </cc:Work>
  </rdf:RDF>
 </metadata>
 <defs>
  <style type="text/css">*{stroke-linecap:butt;stroke-linejoin:round;}</style>
 </defs>
 <g id="figure_1">
  <g id="patch_1">
   <path d="M 0 360 
L 576 360 
L 576 0 
L 0 0 
z
" style="fill:#ffffff;"/>
  </g>
  <g id="axes_1">
   <g id="patch_2">
    <path d="M 55.835 309.54 
L 563.04 309.54 
L 563.04 16.96 
L 55.835 16.96 
z
" style="fill:#ffffff;"/>
   </g>
   <g id="matplotlib.axis_1">
    <g id="xtick_1">
     <g id="line2d_1">
      <path clip-path="url(#p387d03a4bb)" d="M 78.312682 309.54 
L 78.312682 16.96 
" style="fill:none;stroke:#cccccc;stroke-linecap:round;"/>
     </g>
     <g id="text_1">
      <!-- 0 -->
      <g style="fill:#262626;" transform="translate(75.254166 326.913594)scale(0.11 -0.11)">
       <defs>
        <path d="M 4.15625 35.296875 
Q 4.15625 48 6.765625 55.734375 
Q 9.375 63.484375 14.515625 67.671875 
Q 19.671875 71.875 27.484375 71.875 
Q 33.25 71.875 37.59375 69.546875 
Q 41.9375 67.234375 44.765625 62.859375 
Q 47.609375 58.5 49.21875 52.21875 
Q 50.828125 45.953125 50.828125 35.296875 
Q 50.828125 22.703125 48.234375 14.96875 
Q 45.65625 7.234375 40.5 3 
Q 35.359375 -1.21875 27.484375 -1.21875 
Q 17.140625 -1.21875 11.234375 6.203125 
Q 4.15625 15.140625 4.15625 35.296875 
z
M 13.1875 35.296875 
Q 13.1875 17.671875 17.3125 11.828125 
Q 21.4375 6 27.484375 6 
Q 33.546875 6 37.671875 11.859375 
Q 41.796875 17.71875 41.796875 35.296875 
Q 41.796875 52.984375 37.671875 58.78125 
Q 33.546875 64.59375 27.390625 64.59375 
Q 21.34375 64.59375 17.71875 59.46875 
Q 13.1875 52.9375 13.1875 35.296875 
z
" id="ArialMT-48"/>
       </defs>
       <use xlink:href="#ArialMT-48"/>
      </g>
     </g>
    </g>
    <g id="xtick_2">
     <g id="line2d_2">
      <path clip-path="url(#p387d03a4bb)" d="M 136.02175 309.54 
L 136.02175 16.96 
" style="fill:none;stroke:#cccccc;stroke-linecap:round;"/>
     </g>
     <g id="text_2">
      <!-- 100 -->
      <g style="fill:#262626;" transform="translate(126.846203 326.913594)scale(0.11 -0.11)">
       <defs>
        <path d="M 37.25 0 
L 28.46875 0 
L 28.46875 56 
Q 25.296875 52.984375 20.140625 49.953125 
Q 14.984375 46.921875 10.890625 45.40625 
L 10.890625 53.90625 
Q 18.265625 57.375 23.78125 62.296875 
Q 29.296875 67.234375 31.59375 71.875 
L 37.25 71.875 
z
" id="ArialMT-49"/>
       </defs>
       <use xlink:href="#ArialMT-49"/>
       <use x="55.615234" xlink:href="#ArialMT-48"/>
       <use x="111.230469" xlink:href="#ArialMT-48"/>
      </g>
     </g>
    </g>
    <g id="xtick_3">
     <g id="line2d_3">
      <path clip-path="url(#p387d03a4bb)" d="M 193.730818 309.54 
L 193.730818 16.96 
" style="fill:none;stroke:#cccccc;stroke-linecap:round;"/>
     </g>
     <g id="text_3">
      <!-- 200 -->
      <g style="fill:#262626;" transform="translate(184.555271 326.913594)scale(0.11 -0.11)">
       <defs>
        <path d="M 50.34375 8.453125 
L 50.34375 0 
L 3.03125 0 
Q 2.9375 3.171875 4.046875 6.109375 
Q 5.859375 10.9375 9.828125 15.625 
Q 13.8125 20.3125 21.34375 26.46875 
Q 33.015625 36.03125 37.109375 41.625 
Q 41.21875 47.21875 41.21875 52.203125 
Q 41.21875 57.421875 37.46875 61 
Q 33.734375 64.59375 27.734375 64.59375 
Q 21.390625 64.59375 17.578125 60.78125 
Q 13.765625 56.984375 13.71875 50.25 
L 4.6875 51.171875 
Q 5.609375 61.28125 11.65625 66.578125 
Q 17.71875 71.875 27.9375 71.875 
Q 38.234375 71.875 44.234375 66.15625 
Q 50.25 60.453125 50.25 52 
Q 50.25 47.703125 48.484375 43.546875 
Q 46.734375 39.40625 42.65625 34.8125 
Q 38.578125 30.21875 29.109375 22.21875 
Q 21.1875 15.578125 18.9375 13.203125 
Q 16.703125 10.84375 15.234375 8.453125 
z
" id="ArialMT-50"/>
       </defs>
       <use xlink:href="#ArialMT-50"/>
       <use x="55.615234" xlink:href="#ArialMT-48"/>
       <use x="111.230469" xlink:href="#ArialMT-48"/>
      </g>
     </g>
    </g>
    <g id="xtick_4">
     <g id="line2d_4">
      <path clip-path="url(#p387d03a4bb)" d="M 251.439887 309.54 
L 251.439887 16.96 
" style="fill:none;stroke:#cccccc;stroke-linecap:round;"/>
     </g>
     <g id="text_4">
      <!-- 300 -->
      <g style="fill:#262626;" transform="translate(242.26434 326.913594)scale(0.11 -0.11)">
       <defs>
        <path d="M 4.203125 18.890625 
L 12.984375 20.0625 
Q 14.5 12.59375 18.140625 9.296875 
Q 21.78125 6 27 6 
Q 33.203125 6 37.46875 10.296875 
Q 41.75 14.59375 41.75 20.953125 
Q 41.75 27 37.796875 30.921875 
Q 33.84375 34.859375 27.734375 34.859375 
Q 25.25 34.859375 21.53125 33.890625 
L 22.515625 41.609375 
Q 23.390625 41.5 23.921875 41.5 
Q 29.546875 41.5 34.03125 44.421875 
Q 38.53125 47.359375 38.53125 53.46875 
Q 38.53125 58.296875 35.25 61.46875 
Q 31.984375 64.65625 26.8125 64.65625 
Q 21.6875 64.65625 18.265625 61.421875 
Q 14.84375 58.203125 13.875 51.765625 
L 5.078125 53.328125 
Q 6.6875 62.15625 12.390625 67.015625 
Q 18.109375 71.875 26.609375 71.875 
Q 32.46875 71.875 37.390625 69.359375 
Q 42.328125 66.84375 44.9375 62.5 
Q 47.5625 58.15625 47.5625 53.265625 
Q 47.5625 48.640625 45.0625 44.828125 
Q 42.578125 41.015625 37.703125 38.765625 
Q 44.046875 37.3125 47.5625 32.6875 
Q 51.078125 28.078125 51.078125 21.140625 
Q 51.078125 11.765625 44.234375 5.25 
Q 37.40625 -1.265625 26.953125 -1.265625 
Q 17.53125 -1.265625 11.296875 4.34375 
Q 5.078125 9.96875 4.203125 18.890625 
z
" id="ArialMT-51"/>
       </defs>
       <use xlink:href="#ArialMT-51"/>
       <use x="55.615234" xlink:href="#ArialMT-48"/>
       <use x="111.230469" xlink:href="#ArialMT-48"/>
      </g>
     </g>
    </g>
    <g id="xtick_5">
     <g id="line2d_5">
      <path clip-path="url(#p387d03a4bb)" d="M 309.148955 309.54 
L 309.148955 16.96 
" style="fill:none;stroke:#cccccc;stroke-linecap:round;"/>
     </g>
     <g id="text_5">
      <!-- 400 -->
      <g style="fill:#262626;" transform="translate(299.973408 326.913594)scale(0.11 -0.11)">
       <defs>
        <path d="M 32.328125 0 
L 32.328125 17.140625 
L 1.265625 17.140625 
L 1.265625 25.203125 
L 33.9375 71.578125 
L 41.109375 71.578125 
L 41.109375 25.203125 
L 50.78125 25.203125 
L 50.78125 17.140625 
L 41.109375 17.140625 
L 41.109375 0 
z
M 32.328125 25.203125 
L 32.328125 57.46875 
L 9.90625 25.203125 
z
" id="ArialMT-52"/>
       </defs>
       <use xlink:href="#ArialMT-52"/>
       <use x="55.615234" xlink:href="#ArialMT-48"/>
       <use x="111.230469" xlink:href="#ArialMT-48"/>
      </g>
     </g>
    </g>
    <g id="xtick_6">
     <g id="line2d_6">
      <path clip-path="url(#p387d03a4bb)" d="M 366.858023 309.54 
L 366.858023 16.96 
" style="fill:none;stroke:#cccccc;stroke-linecap:round;"/>
     </g>
     <g id="text_6">
      <!-- 500 -->
      <g style="fill:#262626;" transform="translate(357.682476 326.913594)scale(0.11 -0.11)">
       <defs>
        <path d="M 4.15625 18.75 
L 13.375 19.53125 
Q 14.40625 12.796875 18.140625 9.390625 
Q 21.875 6 27.15625 6 
Q 33.5 6 37.890625 10.78125 
Q 42.28125 15.578125 42.28125 23.484375 
Q 42.28125 31 38.0625 35.34375 
Q 33.84375 39.703125 27 39.703125 
Q 22.75 39.703125 19.328125 37.765625 
Q 15.921875 35.84375 13.96875 32.765625 
L 5.71875 33.84375 
L 12.640625 70.609375 
L 48.25 70.609375 
L 48.25 62.203125 
L 19.671875 62.203125 
L 15.828125 42.96875 
Q 22.265625 47.46875 29.34375 47.46875 
Q 38.71875 47.46875 45.15625 40.96875 
Q 51.609375 34.46875 51.609375 24.265625 
Q 51.609375 14.546875 45.953125 7.46875 
Q 39.0625 -1.21875 27.15625 -1.21875 
Q 17.390625 -1.21875 11.203125 4.25 
Q 5.03125 9.71875 4.15625 18.75 
z
" id="ArialMT-53"/>
       </defs>
       <use xlink:href="#ArialMT-53"/>
       <use x="55.615234" xlink:href="#ArialMT-48"/>
       <use x="111.230469" xlink:href="#ArialMT-48"/>
      </g>
     </g>
    </g>
    <g id="xtick_7">
     <g id="line2d_7">
      <path clip-path="url(#p387d03a4bb)" d="M 424.567091 309.54 
L 424.567091 16.96 
" style="fill:none;stroke:#cccccc;stroke-linecap:round;"/>
     </g>
     <g id="text_7">
      <!-- 600 -->
      <g style="fill:#262626;" transform="translate(415.391544 326.913594)scale(0.11 -0.11)">
       <defs>
        <path d="M 49.75 54.046875 
L 41.015625 53.375 
Q 39.84375 58.546875 37.703125 60.890625 
Q 34.125 64.65625 28.90625 64.65625 
Q 24.703125 64.65625 21.53125 62.3125 
Q 17.390625 59.28125 14.984375 53.46875 
Q 12.59375 47.65625 12.5 36.921875 
Q 15.671875 41.75 20.265625 44.09375 
Q 24.859375 46.4375 29.890625 46.4375 
Q 38.671875 46.4375 44.84375 39.96875 
Q 51.03125 33.5 51.03125 23.25 
Q 51.03125 16.5 48.125 10.71875 
Q 45.21875 4.9375 40.140625 1.859375 
Q 35.0625 -1.21875 28.609375 -1.21875 
Q 17.625 -1.21875 10.6875 6.859375 
Q 3.765625 14.9375 3.765625 33.5 
Q 3.765625 54.25 11.421875 63.671875 
Q 18.109375 71.875 29.4375 71.875 
Q 37.890625 71.875 43.28125 67.140625 
Q 48.6875 62.40625 49.75 54.046875 
z
M 13.875 23.1875 
Q 13.875 18.65625 15.796875 14.5 
Q 17.71875 10.359375 21.1875 8.171875 
Q 24.65625 6 28.46875 6 
Q 34.03125 6 38.03125 10.484375 
Q 42.046875 14.984375 42.046875 22.703125 
Q 42.046875 30.125 38.078125 34.390625 
Q 34.125 38.671875 28.125 38.671875 
Q 22.171875 38.671875 18.015625 34.390625 
Q 13.875 30.125 13.875 23.1875 
z
" id="ArialMT-54"/>
       </defs>
       <use xlink:href="#ArialMT-54"/>
       <use x="55.615234" xlink:href="#ArialMT-48"/>
       <use x="111.230469" xlink:href="#ArialMT-48"/>
      </g>
     </g>
    </g>
    <g id="xtick_8">
     <g id="line2d_8">
      <path clip-path="url(#p387d03a4bb)" d="M 482.276159 309.54 
L 482.276159 16.96 
" style="fill:none;stroke:#cccccc;stroke-linecap:round;"/>
     </g>
     <g id="text_8">
      <!-- 700 -->
      <g style="fill:#262626;" transform="translate(473.100612 326.913594)scale(0.11 -0.11)">
       <defs>
        <path d="M 4.734375 62.203125 
L 4.734375 70.65625 
L 51.078125 70.65625 
L 51.078125 63.8125 
Q 44.234375 56.546875 37.515625 44.484375 
Q 30.8125 32.421875 27.15625 19.671875 
Q 24.515625 10.6875 23.78125 0 
L 14.75 0 
Q 14.890625 8.453125 18.0625 20.40625 
Q 21.234375 32.375 27.171875 43.484375 
Q 33.109375 54.59375 39.796875 62.203125 
z
" id="ArialMT-55"/>
       </defs>
       <use xlink:href="#ArialMT-55"/>
       <use x="55.615234" xlink:href="#ArialMT-48"/>
       <use x="111.230469" xlink:href="#ArialMT-48"/>
      </g>
     </g>
    </g>
    <g id="xtick_9">
     <g id="line2d_9">
      <path clip-path="url(#p387d03a4bb)" d="M 539.985227 309.54 
L 539.985227 16.96 
" style="fill:none;stroke:#cccccc;stroke-linecap:round;"/>
     </g>
     <g id="text_9">
      <!-- 800 -->
      <g style="fill:#262626;" transform="translate(530.80968 326.913594)scale(0.11 -0.11)">
       <defs>
        <path d="M 17.671875 38.8125 
Q 12.203125 40.828125 9.5625 44.53125 
Q 6.9375 48.25 6.9375 53.421875 
Q 6.9375 61.234375 12.546875 66.546875 
Q 18.171875 71.875 27.484375 71.875 
Q 36.859375 71.875 42.578125 66.421875 
Q 48.296875 60.984375 48.296875 53.171875 
Q 48.296875 48.1875 45.671875 44.5 
Q 43.0625 40.828125 37.75 38.8125 
Q 44.34375 36.671875 47.78125 31.875 
Q 51.21875 27.09375 51.21875 20.453125 
Q 51.21875 11.28125 44.71875 5.03125 
Q 38.234375 -1.21875 27.640625 -1.21875 
Q 17.046875 -1.21875 10.546875 5.046875 
Q 4.046875 11.328125 4.046875 20.703125 
Q 4.046875 27.6875 7.59375 32.390625 
Q 11.140625 37.109375 17.671875 38.8125 
z
M 15.921875 53.71875 
Q 15.921875 48.640625 19.1875 45.40625 
Q 22.46875 42.1875 27.6875 42.1875 
Q 32.765625 42.1875 36.015625 45.375 
Q 39.265625 48.578125 39.265625 53.21875 
Q 39.265625 58.0625 35.90625 61.359375 
Q 32.5625 64.65625 27.59375 64.65625 
Q 22.5625 64.65625 19.234375 61.421875 
Q 15.921875 58.203125 15.921875 53.71875 
z
M 13.09375 20.65625 
Q 13.09375 16.890625 14.875 13.375 
Q 16.65625 9.859375 20.171875 7.921875 
Q 23.6875 6 27.734375 6 
Q 34.03125 6 38.125 10.046875 
Q 42.234375 14.109375 42.234375 20.359375 
Q 42.234375 26.703125 38.015625 30.859375 
Q 33.796875 35.015625 27.4375 35.015625 
Q 21.234375 35.015625 17.15625 30.90625 
Q 13.09375 26.8125 13.09375 20.65625 
z
" id="ArialMT-56"/>
       </defs>
       <use xlink:href="#ArialMT-56"/>
       <use x="55.615234" xlink:href="#ArialMT-48"/>
       <use x="111.230469" xlink:href="#ArialMT-48"/>
      </g>
     </g>
    </g>
    <g id="text_10">
     <!-- Epoch -->
     <g style="fill:#262626;" transform="translate(288.172656 343.836563)scale(0.15 -0.15)">
      <defs>
       <path d="M 7.90625 0 
L 7.90625 71.578125 
L 59.671875 71.578125 
L 59.671875 63.140625 
L 17.390625 63.140625 
L 17.390625 41.21875 
L 56.984375 41.21875 
L 56.984375 32.8125 
L 17.390625 32.8125 
L 17.390625 8.453125 
L 61.328125 8.453125 
L 61.328125 0 
z
" id="ArialMT-69"/>
       <path d="M 6.59375 -19.875 
L 6.59375 51.859375 
L 14.59375 51.859375 
L 14.59375 45.125 
Q 17.4375 49.078125 21 51.046875 
Q 24.5625 53.03125 29.640625 53.03125 
Q 36.28125 53.03125 41.359375 49.609375 
Q 46.4375 46.1875 49.015625 39.953125 
Q 51.609375 33.734375 51.609375 26.3125 
Q 51.609375 18.359375 48.75 11.984375 
Q 45.90625 5.609375 40.453125 2.21875 
Q 35.015625 -1.171875 29 -1.171875 
Q 24.609375 -1.171875 21.109375 0.6875 
Q 17.625 2.546875 15.375 5.375 
L 15.375 -19.875 
z
M 14.546875 25.640625 
Q 14.546875 15.625 18.59375 10.84375 
Q 22.65625 6.0625 28.421875 6.0625 
Q 34.28125 6.0625 38.453125 11.015625 
Q 42.625 15.96875 42.625 26.375 
Q 42.625 36.28125 38.546875 41.203125 
Q 34.46875 46.140625 28.8125 46.140625 
Q 23.1875 46.140625 18.859375 40.890625 
Q 14.546875 35.640625 14.546875 25.640625 
z
" id="ArialMT-112"/>
       <path d="M 3.328125 25.921875 
Q 3.328125 40.328125 11.328125 47.265625 
Q 18.015625 53.03125 27.640625 53.03125 
Q 38.328125 53.03125 45.109375 46.015625 
Q 51.90625 39.015625 51.90625 26.65625 
Q 51.90625 16.65625 48.90625 10.90625 
Q 45.90625 5.171875 40.15625 2 
Q 34.421875 -1.171875 27.640625 -1.171875 
Q 16.75 -1.171875 10.03125 5.8125 
Q 3.328125 12.796875 3.328125 25.921875 
z
M 12.359375 25.921875 
Q 12.359375 15.96875 16.703125 11.015625 
Q 21.046875 6.0625 27.640625 6.0625 
Q 34.1875 6.0625 38.53125 11.03125 
Q 42.875 16.015625 42.875 26.21875 
Q 42.875 35.84375 38.5 40.796875 
Q 34.125 45.75 27.640625 45.75 
Q 21.046875 45.75 16.703125 40.8125 
Q 12.359375 35.890625 12.359375 25.921875 
z
" id="ArialMT-111"/>
       <path d="M 40.4375 19 
L 49.078125 17.875 
Q 47.65625 8.9375 41.8125 3.875 
Q 35.984375 -1.171875 27.484375 -1.171875 
Q 16.84375 -1.171875 10.375 5.78125 
Q 3.90625 12.75 3.90625 25.734375 
Q 3.90625 34.125 6.6875 40.421875 
Q 9.46875 46.734375 15.15625 49.875 
Q 20.84375 53.03125 27.546875 53.03125 
Q 35.984375 53.03125 41.359375 48.75 
Q 46.734375 44.484375 48.25 36.625 
L 39.703125 35.296875 
Q 38.484375 40.53125 35.375 43.15625 
Q 32.28125 45.796875 27.875 45.796875 
Q 21.234375 45.796875 17.078125 41.03125 
Q 12.9375 36.28125 12.9375 25.984375 
Q 12.9375 15.53125 16.9375 10.796875 
Q 20.953125 6.0625 27.390625 6.0625 
Q 32.5625 6.0625 36.03125 9.234375 
Q 39.5 12.40625 40.4375 19 
z
" id="ArialMT-99"/>
       <path d="M 6.59375 0 
L 6.59375 71.578125 
L 15.375 71.578125 
L 15.375 45.90625 
Q 21.53125 53.03125 30.90625 53.03125 
Q 36.671875 53.03125 40.921875 50.75 
Q 45.171875 48.484375 47 44.484375 
Q 48.828125 40.484375 48.828125 32.859375 
L 48.828125 0 
L 40.046875 0 
L 40.046875 32.859375 
Q 40.046875 39.453125 37.1875 42.453125 
Q 34.328125 45.453125 29.109375 45.453125 
Q 25.203125 45.453125 21.75 43.421875 
Q 18.3125 41.40625 16.84375 37.9375 
Q 15.375 34.46875 15.375 28.375 
L 15.375 0 
z
" id="ArialMT-104"/>
      </defs>
      <use xlink:href="#ArialMT-69"/>
      <use x="66.699219" xlink:href="#ArialMT-112"/>
      <use x="122.314453" xlink:href="#ArialMT-111"/>
      <use x="177.929688" xlink:href="#ArialMT-99"/>
      <use x="227.929688" xlink:href="#ArialMT-104"/>
     </g>
    </g>
   </g>
   <g id="matplotlib.axis_2">
    <g id="ytick_1">
     <g id="line2d_10">
      <path clip-path="url(#p387d03a4bb)" d="M 55.835 309.54 
L 563.04 309.54 
" style="fill:none;stroke:#cccccc;stroke-linecap:round;"/>
     </g>
     <g id="text_11">
      <!-- 0.0 -->
      <g style="fill:#262626;" transform="translate(31.045 313.476797)scale(0.11 -0.11)">
       <defs>
        <path d="M 9.078125 0 
L 9.078125 10.015625 
L 19.09375 10.015625 
L 19.09375 0 
z
" id="ArialMT-46"/>
       </defs>
       <use xlink:href="#ArialMT-48"/>
       <use x="55.615234" xlink:href="#ArialMT-46"/>
       <use x="83.398438" xlink:href="#ArialMT-48"/>
      </g>
     </g>
    </g>
    <g id="ytick_2">
     <g id="line2d_11">
      <path clip-path="url(#p387d03a4bb)" d="M 55.835 260.776667 
L 563.04 260.776667 
" style="fill:none;stroke:#cccccc;stroke-linecap:round;"/>
     </g>
     <g id="text_12">
      <!-- 0.2 -->
      <g style="fill:#262626;" transform="translate(31.045 264.713464)scale(0.11 -0.11)">
       <use xlink:href="#ArialMT-48"/>
       <use x="55.615234" xlink:href="#ArialMT-46"/>
       <use x="83.398438" xlink:href="#ArialMT-50"/>
      </g>
     </g>
    </g>
    <g id="ytick_3">
     <g id="line2d_12">
      <path clip-path="url(#p387d03a4bb)" d="M 55.835 212.013333 
L 563.04 212.013333 
" style="fill:none;stroke:#cccccc;stroke-linecap:round;"/>
     </g>
     <g id="text_13">
      <!-- 0.4 -->
      <g style="fill:#262626;" transform="translate(31.045 215.95013)scale(0.11 -0.11)">
       <use xlink:href="#ArialMT-48"/>
       <use x="55.615234" xlink:href="#ArialMT-46"/>
       <use x="83.398438" xlink:href="#ArialMT-52"/>
      </g>
     </g>
    </g>
    <g id="ytick_4">
     <g id="line2d_13">
      <path clip-path="url(#p387d03a4bb)" d="M 55.835 163.25 
L 563.04 163.25 
" style="fill:none;stroke:#cccccc;stroke-linecap:round;"/>
     </g>
     <g id="text_14">
      <!-- 0.6 -->
      <g style="fill:#262626;" transform="translate(31.045 167.186797)scale(0.11 -0.11)">
       <use xlink:href="#ArialMT-48"/>
       <use x="55.615234" xlink:href="#ArialMT-46"/>
       <use x="83.398438" xlink:href="#ArialMT-54"/>
      </g>
     </g>
    </g>
    <g id="ytick_5">
     <g id="line2d_14">
      <path clip-path="url(#p387d03a4bb)" d="M 55.835 114.486667 
L 563.04 114.486667 
" style="fill:none;stroke:#cccccc;stroke-linecap:round;"/>
     </g>
     <g id="text_15">
      <!-- 0.8 -->
      <g style="fill:#262626;" transform="translate(31.045 118.423464)scale(0.11 -0.11)">
       <use xlink:href="#ArialMT-48"/>
       <use x="55.615234" xlink:href="#ArialMT-46"/>
       <use x="83.398438" xlink:href="#ArialMT-56"/>
      </g>
     </g>
    </g>
    <g id="ytick_6">
     <g id="line2d_15">
      <path clip-path="url(#p387d03a4bb)" d="M 55.835 65.723333 
L 563.04 65.723333 
" style="fill:none;stroke:#cccccc;stroke-linecap:round;"/>
     </g>
     <g id="text_16">
      <!-- 1.0 -->
      <g style="fill:#262626;" transform="translate(31.045 69.66013)scale(0.11 -0.11)">
       <use xlink:href="#ArialMT-49"/>
       <use x="55.615234" xlink:href="#ArialMT-46"/>
       <use x="83.398438" xlink:href="#ArialMT-48"/>
      </g>
     </g>
    </g>
    <g id="ytick_7">
     <g id="line2d_16">
      <path clip-path="url(#p387d03a4bb)" d="M 55.835 16.96 
L 563.04 16.96 
" style="fill:none;stroke:#cccccc;stroke-linecap:round;"/>
     </g>
     <g id="text_17">
      <!-- 1.2 -->
      <g style="fill:#262626;" transform="translate(31.045 20.896797)scale(0.11 -0.11)">
       <use xlink:href="#ArialMT-49"/>
       <use x="55.615234" xlink:href="#ArialMT-46"/>
       <use x="83.398438" xlink:href="#ArialMT-50"/>
      </g>
     </g>
    </g>
    <g id="text_18">
     <!-- Loss -->
     <g style="fill:#262626;" transform="translate(24.06375 179.091406)rotate(-90)scale(0.15 -0.15)">
      <defs>
       <path d="M 7.328125 0 
L 7.328125 71.578125 
L 16.796875 71.578125 
L 16.796875 8.453125 
L 52.046875 8.453125 
L 52.046875 0 
z
" id="ArialMT-76"/>
       <path d="M 3.078125 15.484375 
L 11.765625 16.84375 
Q 12.5 11.625 15.84375 8.84375 
Q 19.1875 6.0625 25.203125 6.0625 
Q 31.25 6.0625 34.171875 8.515625 
Q 37.109375 10.984375 37.109375 14.3125 
Q 37.109375 17.28125 34.515625 19 
Q 32.71875 20.171875 25.53125 21.96875 
Q 15.875 24.421875 12.140625 26.203125 
Q 8.40625 27.984375 6.46875 31.125 
Q 4.546875 34.28125 4.546875 38.09375 
Q 4.546875 41.546875 6.125 44.5 
Q 7.71875 47.46875 10.453125 49.421875 
Q 12.5 50.921875 16.03125 51.96875 
Q 19.578125 53.03125 23.640625 53.03125 
Q 29.734375 53.03125 34.34375 51.265625 
Q 38.96875 49.515625 41.15625 46.5 
Q 43.359375 43.5 44.1875 38.484375 
L 35.59375 37.3125 
Q 35.015625 41.3125 32.203125 43.546875 
Q 29.390625 45.796875 24.265625 45.796875 
Q 18.21875 45.796875 15.625 43.796875 
Q 13.03125 41.796875 13.03125 39.109375 
Q 13.03125 37.40625 14.109375 36.03125 
Q 15.1875 34.625 17.484375 33.6875 
Q 18.796875 33.203125 25.25 31.453125 
Q 34.578125 28.953125 38.25 27.359375 
Q 41.9375 25.78125 44.03125 22.75 
Q 46.140625 19.734375 46.140625 15.234375 
Q 46.140625 10.84375 43.578125 6.953125 
Q 41.015625 3.078125 36.171875 0.953125 
Q 31.34375 -1.171875 25.25 -1.171875 
Q 15.140625 -1.171875 9.84375 3.03125 
Q 4.546875 7.234375 3.078125 15.484375 
z
" id="ArialMT-115"/>
      </defs>
      <use xlink:href="#ArialMT-76"/>
      <use x="55.615234" xlink:href="#ArialMT-111"/>
      <use x="111.230469" xlink:href="#ArialMT-115"/>
      <use x="161.230469" xlink:href="#ArialMT-115"/>
     </g>
    </g>
   </g>
   <g id="line2d_17">
    <path clip-path="url(#p387d03a4bb)" d="M 78.938933 -1 
L 79.466863 172.565467 
L 80.043954 208.642211 
L 80.621045 222.473611 
L 81.198135 229.504551 
L 81.775226 234.096113 
L 82.929407 240.257865 
L 83.506498 243.122337 
L 85.23777 249.688706 
L 88.123224 258.547709 
L 89.277405 261.569903 
L 91.008677 265.218292 
L 93.89413 270.191887 
L 94.471221 271.004365 
L 95.048312 271.567333 
L 95.625402 272.526052 
L 98.510856 275.483685 
L 99.087947 275.764197 
L 100.819219 277.34065 
L 101.396309 277.653999 
L 101.9734 278.226801 
L 102.550491 278.446527 
L 103.704672 279.071849 
L 104.281763 279.234436 
L 105.435944 279.996431 
L 106.013035 280.116888 
L 106.590125 280.532893 
L 107.167216 280.662121 
L 107.744307 281.036944 
L 108.321397 281.083875 
L 110.05267 281.750575 
L 110.62976 281.965282 
L 111.206851 282.370129 
L 112.361032 282.481523 
L 114.092304 283.172278 
L 115.823576 283.850834 
L 116.977758 283.866724 
L 118.70903 284.426562 
L 119.863211 284.625368 
L 120.440302 284.885082 
L 121.594483 285.104542 
L 122.171574 285.374386 
L 124.479937 285.520773 
L 125.057027 285.795355 
L 125.634118 285.831663 
L 127.36539 286.352294 
L 127.942481 286.377528 
L 128.519571 286.595749 
L 130.250843 286.689833 
L 131.405025 286.955054 
L 133.136297 287.114585 
L 133.713387 287.253889 
L 134.290478 287.129721 
L 135.44466 287.481419 
L 136.02175 287.4518 
L 136.598841 287.671062 
L 137.753022 287.720542 
L 138.907204 287.932787 
L 139.484294 288.088293 
L 140.061385 287.972229 
L 140.638476 288.174951 
L 142.369748 288.387231 
L 144.10102 288.427052 
L 144.67811 288.363325 
L 145.832292 288.655597 
L 146.986473 288.665875 
L 149.294836 289.013495 
L 149.871927 288.904601 
L 151.026108 289.083352 
L 153.334471 289.17308 
L 153.911561 289.338363 
L 155.642833 289.351015 
L 156.219924 289.275769 
L 156.797015 289.436852 
L 159.105377 289.536288 
L 159.682468 289.684618 
L 160.83665 289.622878 
L 161.41374 289.809048 
L 162.567922 289.780096 
L 164.299194 289.792574 
L 164.876284 289.796378 
L 165.453375 289.933885 
L 166.607556 289.941924 
L 167.184647 290.03773 
L 168.338828 289.958393 
L 169.49301 290.113746 
L 171.224282 290.166142 
L 171.801372 290.246836 
L 172.378463 290.188108 
L 172.955554 290.276982 
L 173.532644 290.156036 
L 176.995189 290.357009 
L 178.726461 290.526002 
L 179.303551 290.392398 
L 180.457733 290.393928 
L 181.611914 290.343928 
L 182.766095 290.465079 
L 183.920277 290.607717 
L 184.497367 290.555823 
L 185.074458 290.637585 
L 186.80573 290.558802 
L 187.382821 290.666743 
L 187.959912 290.53596 
L 188.537002 290.657498 
L 191.999546 290.531388 
L 192.576637 290.640962 
L 193.153728 290.61634 
L 193.730818 290.74226 
L 195.46209 290.696019 
L 196.616272 290.622369 
L 202.387179 290.751573 
L 203.54136 290.792285 
L 204.118451 290.695336 
L 205.272632 290.712097 
L 206.426813 290.778847 
L 207.580995 290.918091 
L 208.158085 290.798039 
L 211.043539 290.841565 
L 212.774811 290.752149 
L 213.351902 290.85884 
L 216.237355 290.780221 
L 217.391536 290.960883 
L 217.968627 290.829779 
L 219.699899 290.895708 
L 224.893715 291.068762 
L 227.202078 290.936582 
L 227.779169 290.99805 
L 228.93335 290.929859 
L 230.087531 291.033993 
L 230.664622 291.144649 
L 231.241713 290.982373 
L 233.550075 291.057822 
L 234.127166 290.97505 
L 234.704257 291.109275 
L 236.435529 291.045891 
L 237.012619 291.090739 
L 237.58971 290.99767 
L 238.166801 291.054075 
L 239.320982 291.038492 
L 242.206436 291.075345 
L 242.783526 291.118756 
L 243.937708 290.982674 
L 245.66898 290.98181 
L 246.823161 290.952688 
L 247.400252 291.039649 
L 249.708614 290.938612 
L 250.862796 291.080895 
L 251.439887 290.979593 
L 252.594068 291.091929 
L 255.479521 290.966184 
L 258.364975 290.977408 
L 258.942065 291.037286 
L 259.519156 290.897499 
L 260.673337 290.926519 
L 261.827519 290.893473 
L 262.404609 291.004898 
L 262.9817 290.938417 
L 264.712972 291.026276 
L 268.752607 290.963793 
L 271.63806 290.877936 
L 275.100604 290.678512 
L 275.677695 290.846008 
L 276.254786 290.80364 
L 276.831876 290.985563 
L 277.408967 290.869629 
L 279.71733 290.81358 
L 280.871511 290.760453 
L 282.602783 290.899532 
L 291.259144 290.663622 
L 292.413325 290.688338 
L 307.417683 290.660581 
L 307.994773 290.675186 
L 309.148955 290.485981 
L 310.880227 290.521775 
L 312.034408 290.446069 
L 313.188589 290.50889 
L 313.76568 290.472046 
L 314.342771 290.552942 
L 314.919861 290.392433 
L 316.074043 290.418426 
L 317.228224 290.519566 
L 320.690768 290.477341 
L 321.84495 290.483539 
L 322.999131 290.600467 
L 325.884584 290.401387 
L 329.347129 290.383263 
L 331.078401 290.341983 
L 331.655491 290.384167 
L 332.809673 290.312354 
L 333.386763 290.34268 
L 333.963854 290.2485 
L 335.695126 290.343756 
L 337.426398 290.146241 
L 338.003489 290.262128 
L 339.15767 290.162469 
L 339.734761 290.226548 
L 341.466033 290.122887 
L 342.620214 290.255723 
L 344.351486 290.237461 
L 347.23694 290.159061 
L 350.699484 290.133489 
L 352.430756 290.102124 
L 354.162028 290.082752 
L 355.316209 290.066922 
L 356.470391 290.040446 
L 359.355844 290.033632 
L 360.510025 290.049928 
L 362.241297 289.978413 
L 363.395479 289.997881 
L 365.703841 289.92659 
L 370.897658 289.851327 
L 371.474748 289.910157 
L 372.62893 289.79952 
L 374.360202 289.787211 
L 384.747834 289.639511 
L 386.479106 289.581155 
L 387.633287 289.653689 
L 404.368917 289.347117 
L 404.946008 289.40472 
L 406.100189 289.332108 
L 407.831461 289.359973 
L 408.985643 289.351771 
L 409.562733 289.273353 
L 410.716915 289.304073 
L 413.025277 289.264942 
L 414.179459 289.224878 
L 415.910731 289.168853 
L 420.527456 289.082605 
L 421.104547 289.149991 
L 422.258728 289.061437 
L 423.99 289.075077 
L 424.567091 288.934763 
L 425.721272 289.025903 
L 428.029635 288.969225 
L 429.760907 289.038432 
L 432.646361 289.008402 
L 435.531814 289.048599 
L 437.263086 288.975447 
L 440.148539 288.971291 
L 441.302721 288.909415 
L 475.928162 288.561317 
L 477.082343 288.580509 
L 481.699068 288.468492 
L 492.086701 288.35081 
L 498.434698 288.240286 
L 499.58888 288.252792 
L 500.743061 288.180603 
L 501.320152 288.261062 
L 503.628514 288.211762 
L 504.205605 288.261488 
L 505.359786 288.220059 
L 507.091058 288.16057 
L 509.976512 288.105985 
L 512.284875 288.118665 
L 513.439056 288.186014 
L 515.170328 288.097672 
L 522.095416 288.078775 
L 523.249598 287.980102 
L 524.98087 288.045896 
L 526.712142 287.972289 
L 527.866323 287.998843 
L 538.253955 287.902968 
L 539.408137 287.982249 
L 539.985227 287.915125 
L 539.985227 287.915125 
" style="fill:none;stroke:#4c72b0;stroke-linecap:round;stroke-width:1.5;"/>
   </g>
   <g id="line2d_18">
    <path clip-path="url(#p387d03a4bb)" d="M 81.135055 -1 
L 81.775226 41.898289 
L 82.352317 82.195621 
L 82.929407 98.666062 
L 83.506498 110.686489 
L 84.083589 131.769565 
L 84.66068 120.063246 
L 85.23777 150.136134 
L 85.814861 158.552097 
L 86.391952 171.551077 
L 86.969042 176.175875 
L 88.123224 182.742971 
L 88.700314 187.174674 
L 89.277405 190.167606 
L 89.854496 198.960639 
L 91.008677 203.081345 
L 91.585768 202.502708 
L 92.162858 207.659574 
L 92.739949 206.343872 
L 93.31704 209.477487 
L 93.89413 210.450408 
L 94.471221 212.991863 
L 95.048312 213.33242 
L 95.625402 214.86625 
L 96.202493 217.797999 
L 96.779584 207.521202 
L 97.356675 215.565108 
L 97.933765 218.776639 
L 98.510856 208.694216 
L 99.087947 215.109089 
L 99.665037 209.299317 
L 100.242128 220.744957 
L 100.819219 223.449243 
L 101.396309 224.937294 
L 101.9734 225.597395 
L 102.550491 225.676953 
L 103.704672 226.426618 
L 104.281763 228.150316 
L 104.858853 224.435992 
L 105.435944 229.272763 
L 106.013035 230.915144 
L 106.590125 233.050536 
L 107.167216 233.706015 
L 107.744307 232.035295 
L 108.321397 234.318382 
L 108.898488 235.371437 
L 109.475579 236.138693 
L 110.05267 236.144528 
L 110.62976 237.404563 
L 111.206851 237.374727 
L 111.783942 236.635715 
L 112.361032 237.990466 
L 112.938123 233.469089 
L 113.515214 237.471856 
L 114.092304 237.918617 
L 114.669395 237.994216 
L 115.246486 240.281706 
L 115.823576 239.801745 
L 116.400667 235.426159 
L 117.554848 241.881201 
L 118.131939 240.839199 
L 118.70903 242.973116 
L 119.863211 242.457622 
L 120.440302 244.574652 
L 121.017392 244.003703 
L 121.594483 238.419178 
L 122.748665 244.467525 
L 123.325755 245.173534 
L 123.902846 245.509484 
L 124.479937 247.39942 
L 125.057027 247.418138 
L 125.634118 246.149006 
L 126.211209 242.721149 
L 126.788299 245.932586 
L 127.36539 247.124732 
L 127.942481 246.804928 
L 128.519571 245.232049 
L 129.096662 249.763795 
L 129.673753 247.631572 
L 130.250843 248.088542 
L 130.827934 249.071895 
L 131.405025 249.719373 
L 131.982115 250.162676 
L 133.136297 248.753583 
L 133.713387 251.919508 
L 134.290478 250.826761 
L 134.867569 248.441583 
L 135.44466 248.118799 
L 136.02175 249.875711 
L 136.598841 252.390666 
L 137.175932 247.995315 
L 137.753022 251.816363 
L 138.330113 252.175194 
L 138.907204 249.991761 
L 139.484294 252.845246 
L 140.061385 252.694048 
L 140.638476 253.285268 
L 141.215566 253.467964 
L 141.792657 253.230756 
L 142.369748 252.813107 
L 142.946838 254.995468 
L 143.523929 253.199641 
L 144.10102 250.913103 
L 144.67811 254.979522 
L 145.255201 254.880018 
L 145.832292 250.2993 
L 146.409382 254.642987 
L 146.986473 255.330815 
L 147.563564 255.470256 
L 148.140655 254.260536 
L 148.717745 254.50108 
L 149.294836 256.381414 
L 149.871927 257.152227 
L 150.449017 253.985801 
L 151.026108 256.830402 
L 151.603199 257.032849 
L 152.180289 256.64833 
L 152.75738 257.870624 
L 153.334471 257.189877 
L 153.911561 255.594044 
L 155.065743 259.163975 
L 155.642833 258.60156 
L 156.219924 257.393203 
L 157.374105 258.241896 
L 157.951196 258.184627 
L 158.528287 259.457276 
L 159.105377 257.266362 
L 159.682468 255.591563 
L 160.259559 259.808409 
L 160.83665 259.554067 
L 161.41374 260.660005 
L 161.990831 259.495893 
L 162.567922 259.592193 
L 163.145012 259.917625 
L 163.722103 260.110873 
L 164.299194 261.740156 
L 164.876284 258.386692 
L 165.453375 261.193628 
L 166.030466 260.867647 
L 166.607556 261.486526 
L 167.184647 261.776335 
L 167.761738 260.882405 
L 168.338828 261.092438 
L 168.915919 259.601716 
L 169.49301 261.820198 
L 170.0701 259.874918 
L 170.647191 261.271872 
L 171.801372 262.566164 
L 172.955554 260.670654 
L 173.532644 262.293162 
L 174.109735 262.445038 
L 174.686826 262.261688 
L 175.263917 262.938286 
L 175.841007 263.171628 
L 176.995189 261.769984 
L 177.572279 263.593343 
L 178.14937 264.406239 
L 178.726461 262.727603 
L 179.303551 261.963402 
L 179.880642 262.537818 
L 180.457733 264.741964 
L 181.034823 263.984473 
L 181.611914 263.573582 
L 182.189005 264.40835 
L 182.766095 261.354798 
L 183.343186 263.877543 
L 183.920277 262.850607 
L 184.497367 263.310517 
L 185.074458 263.602099 
L 185.651549 264.478389 
L 186.228639 264.885364 
L 186.80573 264.954783 
L 187.382821 265.436655 
L 187.959912 264.693011 
L 188.537002 265.491922 
L 189.114093 265.736412 
L 189.691184 265.663015 
L 190.268274 263.727944 
L 190.845365 265.559234 
L 191.422456 265.742174 
L 191.999546 263.905474 
L 192.576637 265.607998 
L 193.153728 266.375414 
L 194.307909 263.334296 
L 194.885 265.929263 
L 195.46209 266.496794 
L 196.039181 265.681446 
L 196.616272 266.698191 
L 197.193362 265.8505 
L 197.770453 265.385787 
L 198.347544 265.381496 
L 199.501725 266.167282 
L 200.078816 266.166442 
L 200.655907 263.776094 
L 201.232997 265.078848 
L 201.810088 267.489978 
L 202.387179 266.420669 
L 202.964269 267.051638 
L 203.54136 259.758257 
L 204.118451 266.090128 
L 204.695541 267.971912 
L 205.849723 269.269234 
L 206.426813 268.496488 
L 207.003904 268.465021 
L 207.580995 267.805379 
L 208.158085 268.424777 
L 208.735176 269.353577 
L 209.312267 268.194206 
L 209.889357 267.714143 
L 210.466448 269.203296 
L 211.043539 269.484596 
L 211.620629 268.545172 
L 212.19772 268.327968 
L 212.774811 267.066087 
L 213.351902 267.680224 
L 213.928992 267.640303 
L 214.506083 268.052931 
L 215.083174 269.722088 
L 215.660264 269.400183 
L 216.237355 270.01573 
L 216.814446 269.546203 
L 217.391536 270.071601 
L 217.968627 270.02308 
L 218.545718 269.809763 
L 219.122808 269.045631 
L 219.699899 269.417859 
L 220.27699 269.571748 
L 220.85408 265.322974 
L 221.431171 266.681028 
L 222.008262 267.494559 
L 222.585352 269.215932 
L 223.162443 268.002837 
L 224.316624 270.549426 
L 224.893715 270.520782 
L 225.470806 268.44837 
L 226.047897 267.790977 
L 226.624987 270.547315 
L 227.202078 269.161049 
L 227.779169 270.290011 
L 228.356259 269.018713 
L 228.93335 268.58243 
L 229.510441 270.812666 
L 230.087531 269.935089 
L 230.664622 266.184982 
L 231.241713 270.200222 
L 231.818803 270.596624 
L 232.395894 270.728554 
L 232.972985 270.014924 
L 233.550075 270.120201 
L 234.127166 270.84411 
L 234.704257 271.273981 
L 235.281347 271.064439 
L 235.858438 269.618776 
L 236.435529 271.471309 
L 237.012619 271.676309 
L 237.58971 270.762859 
L 238.166801 271.303955 
L 238.743892 271.482917 
L 239.320982 271.258689 
L 239.898073 269.788433 
L 240.475164 271.260898 
L 241.052254 272.142206 
L 241.629345 270.700176 
L 242.206436 272.053249 
L 242.783526 272.289305 
L 243.360617 271.644025 
L 243.937708 271.768722 
L 244.514798 270.801421 
L 245.091889 271.511855 
L 245.66898 271.051738 
L 246.24607 271.859823 
L 246.823161 271.169499 
L 247.400252 269.102716 
L 247.977342 271.716179 
L 248.554433 272.349725 
L 249.131524 272.059105 
L 249.708614 273.425199 
L 250.285705 273.580647 
L 250.862796 270.192959 
L 251.439887 272.439039 
L 252.016977 272.775875 
L 252.594068 272.879594 
L 253.171159 272.858958 
L 253.748249 273.311885 
L 254.32534 271.913343 
L 254.902431 271.819633 
L 255.479521 272.635458 
L 256.056612 272.644504 
L 256.633703 272.401693 
L 257.210793 273.517129 
L 257.787884 273.086194 
L 258.364975 271.124114 
L 258.942065 271.998722 
L 259.519156 273.514836 
L 260.096247 272.215106 
L 260.673337 272.33622 
L 261.250428 273.485615 
L 261.827519 272.892975 
L 262.404609 272.519262 
L 262.9817 273.523694 
L 263.558791 273.843738 
L 264.135881 273.514095 
L 264.712972 271.700375 
L 265.290063 271.791211 
L 265.867154 271.05819 
L 266.444244 274.020949 
L 267.021335 273.769444 
L 267.598426 273.76455 
L 268.175516 273.471725 
L 268.752607 274.327027 
L 269.329698 272.92939 
L 269.906788 272.127045 
L 270.483879 273.50737 
L 271.63806 275.238367 
L 272.215151 273.821315 
L 272.792242 272.741636 
L 273.369332 274.23432 
L 273.946423 273.850521 
L 274.523514 273.827738 
L 275.100604 274.446351 
L 275.677695 274.720331 
L 276.254786 274.774962 
L 276.831876 274.455078 
L 277.408967 273.889516 
L 277.986058 273.014083 
L 278.563149 275.34407 
L 279.140239 273.554122 
L 279.71733 273.892822 
L 280.294421 273.41491 
L 280.871511 274.433744 
L 281.448602 274.780913 
L 282.025693 274.417758 
L 282.602783 274.716051 
L 283.179874 273.645833 
L 283.756965 274.305835 
L 284.334055 273.646578 
L 284.911146 273.931468 
L 285.488237 274.616281 
L 286.065327 273.709922 
L 286.642418 275.263694 
L 287.219509 275.023993 
L 287.796599 275.297798 
L 288.37369 275.145184 
L 288.950781 274.547044 
L 289.527871 272.657169 
L 290.104962 275.261877 
L 290.682053 274.913091 
L 291.259144 275.277718 
L 291.836234 274.635395 
L 292.413325 275.018064 
L 293.567506 273.760953 
L 294.144597 272.901604 
L 294.721688 275.213934 
L 295.298778 273.57434 
L 295.875869 273.921263 
L 296.45296 274.870536 
L 297.03005 275.166071 
L 297.607141 275.164138 
L 298.184232 275.712671 
L 298.761322 274.502316 
L 299.338413 274.89429 
L 299.915504 274.298907 
L 300.492594 274.181789 
L 301.646776 275.321396 
L 302.223866 274.088776 
L 302.800957 274.554361 
L 303.378048 276.235478 
L 303.955139 276.243962 
L 304.532229 275.452625 
L 305.10932 275.393517 
L 306.263501 276.545906 
L 306.840592 276.588018 
L 307.417683 275.851912 
L 307.994773 276.117982 
L 308.571864 276.720054 
L 309.148955 276.064767 
L 309.726045 274.561602 
L 310.303136 275.288392 
L 310.880227 275.465875 
L 311.457317 274.758515 
L 312.034408 275.501654 
L 312.611499 273.920634 
L 313.188589 276.424522 
L 313.76568 276.412856 
L 314.342771 276.800851 
L 314.919861 274.942821 
L 315.496952 275.023601 
L 316.074043 276.366479 
L 316.651134 274.732985 
L 317.228224 277.098929 
L 317.805315 276.571988 
L 318.382406 277.088422 
L 318.959496 276.953556 
L 319.536587 276.537495 
L 320.113678 277.235016 
L 320.690768 275.572156 
L 321.267859 277.221636 
L 321.84495 277.214776 
L 322.42204 276.482569 
L 322.999131 276.103268 
L 323.576222 277.078308 
L 324.153312 274.699153 
L 324.730403 276.686251 
L 325.307494 275.094422 
L 325.884584 276.546291 
L 327.038766 276.292323 
L 327.615856 275.976518 
L 328.192947 274.884538 
L 328.770038 277.389905 
L 329.347129 275.246022 
L 329.924219 276.652237 
L 330.50131 276.085346 
L 331.078401 276.808444 
L 331.655491 276.157151 
L 332.232582 277.129997 
L 332.809673 276.282575 
L 333.386763 276.33963 
L 333.963854 277.727955 
L 334.540945 276.855981 
L 335.118035 277.189962 
L 335.695126 276.158837 
L 336.272217 276.617969 
L 336.849307 277.514402 
L 337.426398 275.541401 
L 338.003489 276.871981 
L 338.580579 276.647176 
L 339.15767 276.568417 
L 339.734761 276.861572 
L 340.311851 276.77753 
L 340.888942 277.569633 
L 341.466033 277.633166 
L 342.043124 276.898009 
L 342.620214 276.762729 
L 343.197305 277.35115 
L 343.774396 275.827276 
L 344.351486 276.340375 
L 344.928577 276.324618 
L 345.505668 277.334979 
L 346.082758 277.105542 
L 346.659849 277.810991 
L 347.23694 277.809232 
L 347.81403 278.228255 
L 348.391121 277.922634 
L 348.968212 276.968002 
L 349.545302 277.254385 
L 350.122393 276.880646 
L 350.699484 276.991374 
L 351.276574 275.448414 
L 351.853665 276.074308 
L 352.430756 277.476879 
L 353.007846 278.328791 
L 353.584937 277.682773 
L 354.162028 277.695206 
L 355.316209 277.032374 
L 355.8933 278.79927 
L 356.470391 277.649919 
L 357.047481 276.057305 
L 357.624572 277.071452 
L 358.201663 277.019545 
L 358.778753 278.669399 
L 359.355844 278.273462 
L 359.932935 278.292663 
L 360.510025 278.075655 
L 361.087116 278.496625 
L 361.664207 275.47139 
L 362.241297 276.254672 
L 362.818388 278.048196 
L 363.395479 278.630394 
L 363.972569 277.367913 
L 364.54966 278.020326 
L 365.126751 277.624785 
L 365.703841 278.661428 
L 366.280932 276.336117 
L 367.435113 278.310048 
L 368.012204 277.873354 
L 368.589295 278.816745 
L 369.166386 277.264107 
L 369.743476 277.199477 
L 370.320567 274.810585 
L 370.897658 276.27949 
L 371.474748 277.414897 
L 372.051839 279.000368 
L 372.62893 278.834646 
L 373.20602 278.106348 
L 373.783111 278.337656 
L 374.360202 279.356143 
L 374.937292 278.366391 
L 375.514383 279.111933 
L 376.091474 278.34792 
L 376.668564 278.633278 
L 377.245655 277.312671 
L 377.822746 276.378668 
L 378.399836 277.248811 
L 378.976927 279.364628 
L 379.554018 277.982882 
L 380.131108 278.54023 
L 380.708199 278.899032 
L 381.28529 278.802071 
L 381.862381 278.214194 
L 382.439471 278.882226 
L 383.016562 277.916995 
L 383.593653 279.071402 
L 384.170743 278.763861 
L 384.747834 278.91035 
L 385.324925 278.779905 
L 385.902015 278.888722 
L 386.479106 277.516117 
L 387.633287 279.038575 
L 388.210378 279.017837 
L 388.787469 275.805102 
L 389.364559 276.484705 
L 389.94165 278.625707 
L 390.518741 278.747061 
L 391.095831 277.97069 
L 391.672922 278.451294 
L 392.250013 277.939074 
L 393.404194 279.1353 
L 393.981285 279.504366 
L 394.558376 279.667453 
L 395.135466 279.325009 
L 395.712557 280.0485 
L 396.289648 278.842813 
L 396.866738 279.278551 
L 397.443829 279.533946 
L 398.02092 278.557658 
L 398.59801 278.404808 
L 399.175101 280.058362 
L 399.752192 279.694573 
L 400.329282 278.246268 
L 400.906373 279.112725 
L 401.483464 279.42512 
L 402.060554 278.702276 
L 402.637645 278.538686 
L 403.214736 279.69111 
L 403.791826 279.577048 
L 404.368917 279.127688 
L 404.946008 280.035657 
L 405.523098 279.422946 
L 406.100189 279.397212 
L 406.67728 277.312719 
L 407.254371 278.655786 
L 407.831461 279.447211 
L 408.408552 279.592194 
L 408.985643 278.968516 
L 409.562733 279.081629 
L 410.139824 279.909328 
L 410.716915 279.829201 
L 411.294005 278.257425 
L 411.871096 279.718277 
L 412.448187 278.955081 
L 413.025277 279.367551 
L 413.602368 278.966068 
L 414.179459 278.191611 
L 414.756549 279.65813 
L 415.33364 279.504724 
L 415.910731 279.850017 
L 416.487821 280.552105 
L 417.064912 279.872744 
L 418.219093 280.377429 
L 418.796184 280.166488 
L 419.373275 280.21125 
L 419.950366 279.36922 
L 420.527456 278.922405 
L 421.104547 279.551332 
L 421.681638 278.051861 
L 422.258728 279.862848 
L 423.41291 279.764169 
L 423.99 280.197679 
L 424.567091 279.037786 
L 425.144182 279.237259 
L 425.721272 279.935672 
L 426.298363 277.112481 
L 426.875454 277.169976 
L 427.452544 277.031949 
L 428.606726 279.459524 
L 429.183816 276.92533 
L 429.760907 279.239088 
L 430.337998 277.490834 
L 430.915088 280.31671 
L 431.492179 280.479633 
L 432.06927 279.443106 
L 432.646361 280.318679 
L 433.223451 278.576972 
L 434.377633 279.995456 
L 434.954723 279.978538 
L 435.531814 280.33495 
L 436.108905 279.911793 
L 436.685995 279.953869 
L 437.263086 279.139954 
L 437.840177 280.607271 
L 438.417267 280.353107 
L 438.994358 279.023784 
L 439.571449 280.227487 
L 440.148539 280.779103 
L 441.302721 281.018037 
L 441.879811 281.471262 
L 442.456902 280.29575 
L 443.033993 277.258265 
L 443.611083 278.253636 
L 444.188174 280.38841 
L 444.765265 281.416614 
L 445.342356 280.820025 
L 445.919446 279.940561 
L 447.073628 280.73379 
L 447.650718 281.046252 
L 448.227809 281.183322 
L 448.8049 279.842582 
L 449.38199 279.492301 
L 449.959081 279.754411 
L 450.536172 278.721673 
L 451.113262 279.356223 
L 451.690353 280.244921 
L 452.267444 279.921325 
L 452.844534 276.634813 
L 453.421625 280.565955 
L 453.998716 281.784678 
L 455.152897 277.948437 
L 455.729988 280.525725 
L 456.307078 281.12224 
L 456.884169 281.373279 
L 457.46126 280.580157 
L 458.03835 281.096395 
L 458.615441 280.829807 
L 459.192532 281.817863 
L 459.769623 280.468565 
L 460.923804 280.658012 
L 461.500895 281.348109 
L 462.077985 280.187428 
L 462.655076 281.275557 
L 463.232167 280.69909 
L 463.809257 281.356091 
L 464.386348 279.686774 
L 464.963439 280.841246 
L 465.540529 279.930746 
L 466.11762 280.497279 
L 466.694711 279.212401 
L 467.271801 280.525602 
L 467.848892 280.945836 
L 468.425983 280.457237 
L 469.003073 280.392712 
L 469.580164 281.726327 
L 471.888527 280.638858 
L 472.465618 281.408679 
L 473.042708 281.305363 
L 473.619799 280.859439 
L 474.19689 281.102114 
L 474.77398 280.422322 
L 475.351071 280.736929 
L 476.505252 281.875848 
L 477.659434 280.419891 
L 478.236524 281.237296 
L 478.813615 281.686764 
L 479.967796 281.353019 
L 480.544887 281.587803 
L 481.699068 281.500382 
L 482.276159 281.673845 
L 483.43034 280.897244 
L 484.007431 279.887733 
L 484.584522 281.069592 
L 485.161613 279.527946 
L 486.315794 281.102799 
L 486.892885 280.401588 
L 487.469975 281.307172 
L 488.047066 281.11089 
L 488.624157 281.707865 
L 489.201247 280.476009 
L 489.778338 282.106328 
L 490.355429 281.341279 
L 490.932519 281.26215 
L 491.50961 282.239534 
L 492.086701 281.945831 
L 492.663791 281.520168 
L 493.240882 280.018492 
L 493.817973 279.821453 
L 494.395063 282.397726 
L 494.972154 282.23137 
L 495.549245 281.213533 
L 496.126335 281.184795 
L 496.703426 282.621896 
L 497.280517 281.310003 
L 497.857608 281.268005 
L 498.434698 280.614834 
L 499.011789 280.989128 
L 499.58888 282.032947 
L 500.16597 280.723866 
L 500.743061 281.173765 
L 501.320152 278.771636 
L 501.897242 281.306468 
L 502.474333 282.420018 
L 503.051424 280.963244 
L 503.628514 281.278574 
L 504.205605 281.391233 
L 504.782696 281.27465 
L 505.359786 282.070534 
L 505.936877 282.55445 
L 506.513968 281.656818 
L 507.091058 282.211309 
L 507.668149 281.391182 
L 508.24524 280.949636 
L 508.82233 281.699609 
L 509.399421 282.737608 
L 509.976512 282.497496 
L 510.553603 282.103465 
L 511.130693 282.128646 
L 511.707784 282.299348 
L 512.284875 282.204334 
L 512.861965 281.231011 
L 513.439056 282.427976 
L 514.016147 278.457815 
L 514.593237 281.119551 
L 515.170328 280.16552 
L 515.747419 282.768778 
L 516.324509 282.229858 
L 516.9016 281.994481 
L 517.478691 281.445864 
L 518.055781 280.606837 
L 518.632872 282.097428 
L 519.209963 280.330407 
L 519.787053 282.569469 
L 520.364144 281.013632 
L 520.941235 281.527605 
L 521.518325 281.717682 
L 522.095416 282.619167 
L 522.672507 281.82142 
L 523.249598 282.192128 
L 523.826688 280.418088 
L 524.403779 280.989074 
L 524.98087 281.21226 
L 525.55796 281.01375 
L 526.135051 282.403225 
L 526.712142 280.477577 
L 527.289232 282.403065 
L 527.866323 280.737325 
L 528.443414 282.063727 
L 529.020504 281.614248 
L 529.597595 281.991929 
L 530.174686 282.234745 
L 530.751776 282.749659 
L 531.328867 282.670147 
L 532.483048 282.783631 
L 534.21432 281.372829 
L 534.791411 281.640465 
L 535.368502 279.635234 
L 535.945593 281.915694 
L 536.522683 282.786223 
L 537.099774 282.794915 
L 537.676865 281.591606 
L 538.253955 282.475162 
L 538.831046 282.285022 
L 539.408137 282.363246 
L 539.985227 280.462932 
L 539.985227 280.462932 
" style="fill:none;stroke:#4c72b0;stroke-dasharray:6,2.25;stroke-dashoffset:0;stroke-width:1.5;"/>
   </g>
   <g id="line2d_19">
    <path clip-path="url(#p387d03a4bb)" d="M 78.889773 209.714942 
L 79.466863 247.931234 
L 80.043954 262.713078 
L 80.621045 270.058202 
L 81.775226 278.457786 
L 82.929407 283.947235 
L 84.083589 287.977459 
L 85.23777 290.213249 
L 85.814861 290.47222 
L 86.391952 291.452386 
L 86.969042 292.029901 
L 87.546133 292.388232 
L 88.123224 293.262639 
L 88.700314 293.674494 
L 89.277405 294.260772 
L 89.854496 294.414773 
L 90.431586 294.41888 
L 91.585768 295.112888 
L 92.162858 295.854757 
L 92.739949 295.837606 
L 93.31704 295.548861 
L 93.89413 296.711027 
L 94.471221 296.716608 
L 96.202493 297.296883 
L 96.779584 297.982915 
L 97.356675 297.586588 
L 97.933765 298.057608 
L 98.510856 298.314527 
L 99.087947 298.376601 
L 99.665037 298.602056 
L 100.242128 298.395522 
L 100.819219 298.887801 
L 101.396309 298.731373 
L 101.9734 299.106999 
L 102.550491 299.265531 
L 103.704672 299.045553 
L 104.858853 299.570895 
L 106.013035 299.243772 
L 106.590125 299.567817 
L 107.167216 299.70269 
L 108.321397 299.723134 
L 108.898488 299.509635 
L 111.206851 299.749679 
L 111.783942 299.922826 
L 112.361032 299.690859 
L 112.938123 299.619965 
L 113.515214 300.114284 
L 114.669395 299.992106 
L 115.246486 299.855942 
L 115.823576 300.489941 
L 116.400667 300.317985 
L 116.977758 300.279188 
L 117.554848 300.67727 
L 118.70903 300.437852 
L 119.28612 300.892244 
L 119.863211 300.744411 
L 120.440302 300.80428 
L 121.017392 300.611854 
L 122.171574 300.551245 
L 122.748665 300.323219 
L 123.325755 300.986264 
L 123.902846 301.1719 
L 126.211209 301.008701 
L 127.36539 300.606261 
L 127.942481 300.587724 
L 128.519571 300.843438 
L 129.096662 300.929457 
L 129.673753 300.860661 
L 130.827934 300.986257 
L 131.405025 300.824007 
L 132.559206 301.01793 
L 133.136297 300.890381 
L 133.713387 301.09018 
L 134.867569 301.322577 
L 135.44466 301.104403 
L 136.02175 301.275412 
L 136.598841 301.318026 
L 137.175932 301.478304 
L 137.753022 301.431897 
L 138.330113 301.588231 
L 138.907204 301.214364 
L 140.061385 301.428436 
L 140.638476 300.863498 
L 141.215566 301.127285 
L 142.369748 301.429226 
L 142.946838 301.231556 
L 143.523929 301.242906 
L 144.10102 301.55256 
L 144.67811 301.298557 
L 145.832292 301.199463 
L 146.409382 301.442699 
L 146.986473 301.45761 
L 147.563564 301.307208 
L 148.140655 301.350704 
L 149.294836 301.092246 
L 150.449017 301.528045 
L 153.334471 301.692342 
L 153.911561 301.573537 
L 154.488652 301.838631 
L 155.642833 301.59989 
L 157.374105 301.36457 
L 157.951196 301.666301 
L 158.528287 301.707893 
L 159.105377 301.606119 
L 160.83665 301.988649 
L 161.41374 301.705712 
L 161.990831 301.626563 
L 162.567922 301.721063 
L 164.299194 301.393866 
L 165.453375 301.519028 
L 166.030466 301.597105 
L 166.607556 301.516689 
L 168.338828 301.772549 
L 168.915919 301.573548 
L 169.49301 301.495596 
L 170.0701 301.774569 
L 170.647191 301.798895 
L 171.224282 301.139331 
L 172.378463 301.552747 
L 172.955554 301.592537 
L 174.109735 301.369699 
L 174.686826 301.371138 
L 175.263917 301.500881 
L 175.841007 301.34679 
L 177.572279 301.482084 
L 178.14937 301.42287 
L 178.726461 301.150033 
L 181.611914 301.263824 
L 182.189005 300.873687 
L 182.766095 301.507159 
L 183.343186 301.581431 
L 183.920277 301.360425 
L 184.497367 301.58213 
L 185.074458 301.493365 
L 185.651549 301.263172 
L 186.80573 301.369957 
L 187.382821 301.223881 
L 187.959912 301.293485 
L 189.114093 301.151268 
L 190.845365 301.294839 
L 191.422456 301.563971 
L 191.999546 301.284918 
L 192.576637 301.498901 
L 193.730818 300.960938 
L 195.46209 300.856615 
L 196.039181 300.768652 
L 197.193362 301.21048 
L 198.347544 301.313729 
L 198.924634 301.197432 
L 200.078816 301.229874 
L 200.655907 301.167784 
L 201.232997 301.322973 
L 201.810088 301.635118 
L 202.387179 301.616625 
L 202.964269 301.484842 
L 203.54136 301.631028 
L 204.695541 301.276583 
L 206.426813 301.377023 
L 207.580995 301.170386 
L 208.735176 301.32629 
L 211.043539 301.522481 
L 211.620629 301.39755 
L 212.19772 301.399224 
L 212.774811 301.284464 
L 214.506083 301.351466 
L 215.660264 301.313915 
L 217.968627 301.360981 
L 219.122808 301.093971 
L 221.431171 301.067642 
L 222.585352 301.293334 
L 223.739534 301.163325 
L 224.316624 301.276836 
L 226.624987 301.17205 
L 227.779169 301.021101 
L 228.356259 301.116914 
L 229.510441 300.775563 
L 230.087531 301.010266 
L 232.972985 301.080696 
L 233.550075 301.27658 
L 234.704257 301.090714 
L 235.858438 301.28835 
L 237.012619 301.358893 
L 237.58971 301.152468 
L 238.743892 301.217883 
L 239.320982 300.972695 
L 240.475164 301.056711 
L 241.052254 301.028049 
L 241.629345 301.182641 
L 242.783526 301.017892 
L 243.360617 301.128968 
L 246.24607 301.179844 
L 247.400252 301.319703 
L 247.977342 301.336577 
L 249.708614 301.019946 
L 250.285705 301.093374 
L 251.439887 300.764658 
L 252.016977 300.89772 
L 252.594068 301.162179 
L 253.171159 300.981738 
L 253.748249 300.931034 
L 254.32534 301.109664 
L 256.056612 301.229161 
L 257.787884 300.923008 
L 258.364975 301.074599 
L 261.827519 300.666514 
L 264.135881 301.008949 
L 264.712972 300.844999 
L 265.290063 300.802926 
L 265.867154 300.984751 
L 267.598426 300.561614 
L 270.483879 300.75942 
L 271.06097 300.771449 
L 272.215151 300.533423 
L 273.369332 300.732409 
L 273.946423 300.557519 
L 274.523514 300.566357 
L 275.100604 300.374866 
L 276.254786 300.673575 
L 277.408967 300.421425 
L 277.986058 300.40372 
L 278.563149 300.270419 
L 279.140239 300.3574 
L 280.294421 300.330666 
L 280.871511 300.378268 
L 281.448602 300.279833 
L 282.602783 300.39547 
L 283.756965 300.287635 
L 284.334055 300.257396 
L 285.488237 300.340386 
L 287.219509 300.278577 
L 294.721688 300.264752 
L 298.184232 300.550091 
L 299.338413 300.414864 
L 301.646776 300.129516 
L 303.378048 300.306458 
L 304.532229 300.256751 
L 306.263501 300.455225 
L 306.840592 300.374014 
L 307.417683 300.410115 
L 307.994773 300.252931 
L 312.034408 300.288398 
L 312.611499 300.361393 
L 313.188589 300.207353 
L 314.342771 300.347887 
L 314.919861 300.215305 
L 315.496952 300.285721 
L 316.074043 300.506367 
L 319.536587 300.333608 
L 320.113678 300.152469 
L 321.84495 300.343648 
L 322.999131 300.316373 
L 324.153312 300.357664 
L 327.038766 300.291137 
L 329.347129 300.303252 
L 329.924219 300.224467 
L 330.50131 300.352666 
L 331.655491 300.304705 
L 332.232582 300.053807 
L 333.963854 299.902088 
L 334.540945 300.140833 
L 340.888942 300.092849 
L 342.043124 300.247835 
L 344.351486 299.915994 
L 347.23694 300.109349 
L 347.81403 299.93454 
L 348.968212 300.033522 
L 350.699484 299.988456 
L 351.853665 300.106614 
L 353.007846 299.977644 
L 354.739119 300.061168 
L 355.8933 300.040665 
L 357.047481 300.116565 
L 357.624572 299.977887 
L 358.778753 300.019566 
L 359.932935 299.927709 
L 361.087116 300.047281 
L 367.435113 299.955215 
L 368.012204 299.779647 
L 370.897658 299.845794 
L 373.20602 299.694358 
L 373.783111 299.556887 
L 377.822746 299.734233 
L 378.399836 299.672502 
L 379.554018 299.783075 
L 380.708199 299.625991 
L 384.747834 299.653123 
L 385.902015 299.633815 
L 387.056197 299.707438 
L 389.94165 299.676908 
L 390.518741 299.478849 
L 393.404194 299.669142 
L 394.558376 299.718611 
L 397.443829 299.589127 
L 398.59801 299.675046 
L 404.368917 299.593832 
L 407.254371 299.537276 
L 408.985643 299.494017 
L 409.562733 299.550085 
L 410.139824 299.463491 
L 411.871096 299.531758 
L 414.179459 299.570204 
L 415.33364 299.636914 
L 415.910731 299.584358 
L 416.487821 299.710609 
L 421.104547 299.724725 
L 422.835819 299.670929 
L 424.567091 299.672671 
L 427.452544 299.590419 
L 429.760907 299.604783 
L 430.337998 299.465912 
L 436.108905 299.549504 
L 437.263086 299.403173 
L 441.879811 299.398621 
L 448.8049 299.277559 
L 449.959081 299.249435 
L 465.540529 299.271109 
L 466.694711 299.294289 
L 469.003073 299.354866 
L 469.580164 299.242995 
L 470.734345 299.245606 
L 476.505252 299.2037 
L 477.659434 299.240555 
L 479.967796 299.19964 
L 481.699068 299.258278 
L 482.85325 299.144758 
L 484.584522 299.156801 
L 488.047066 299.122514 
L 489.778338 299.138212 
L 499.58888 299.103386 
L 501.897242 299.138119 
L 506.513968 299.104983 
L 508.82233 299.083518 
L 514.016147 299.100662 
L 518.055781 299.037726 
L 519.209963 299.021136 
L 520.941235 298.952203 
L 523.249598 299.003062 
L 526.712142 298.991239 
L 531.328867 298.893147 
L 533.060139 298.929928 
L 535.945593 298.88923 
L 539.985227 298.924068 
L 539.985227 298.924068 
" style="fill:none;stroke:#dd8452;stroke-linecap:round;stroke-width:1.5;"/>
   </g>
   <g id="line2d_20">
    <path clip-path="url(#p387d03a4bb)" d="M 80.467015 -1 
L 80.621045 31.587405 
L 80.886954 -1 
M 81.371707 -1 
L 81.775226 87.657352 
L 82.352317 165.58784 
L 82.929407 180.04104 
L 83.506498 19.998785 
L 84.083589 191.265487 
L 84.66068 181.861786 
L 85.23777 222.664773 
L 85.814861 204.78881 
L 86.391952 234.230918 
L 86.969042 236.12892 
L 87.546133 244.737839 
L 88.123224 235.801856 
L 88.700314 192.749091 
L 89.277405 226.645878 
L 89.854496 238.278125 
L 90.431586 221.969656 
L 91.008677 242.997959 
L 91.585768 222.232987 
L 92.162858 251.000117 
L 93.31704 261.083039 
L 93.89413 260.082436 
L 94.471221 228.27813 
L 95.048312 261.781105 
L 95.625402 256.810195 
L 96.202493 262.002157 
L 96.779584 264.565037 
L 97.356675 272.653852 
L 97.933765 261.754503 
L 99.087947 277.437688 
L 99.665037 277.318608 
L 100.242128 273.046552 
L 100.819219 274.782294 
L 101.396309 271.561109 
L 101.9734 278.910012 
L 103.127581 265.321066 
L 103.704672 277.471447 
L 104.281763 272.286017 
L 104.858853 274.53084 
L 105.435944 275.837997 
L 106.013035 281.968657 
L 106.590125 279.055599 
L 107.167216 270.446782 
L 107.744307 284.914303 
L 108.321397 283.680171 
L 108.898488 276.222948 
L 109.475579 281.965311 
L 110.05267 283.774066 
L 110.62976 285.985202 
L 111.206851 282.454166 
L 111.783942 284.719772 
L 112.361032 282.645862 
L 112.938123 285.52207 
L 113.515214 282.027021 
L 114.092304 279.614438 
L 114.669395 279.403837 
L 115.246486 286.154162 
L 115.823576 286.720506 
L 116.400667 287.593772 
L 116.977758 283.564177 
L 117.554848 286.873004 
L 118.131939 283.797017 
L 118.70903 279.655565 
L 119.28612 279.982242 
L 119.863211 284.962343 
L 120.440302 287.075609 
L 121.017392 291.027618 
L 121.594483 292.076184 
L 122.171574 286.665717 
L 122.748665 292.416465 
L 123.325755 282.964311 
L 123.902846 287.888416 
L 124.479937 286.068639 
L 125.057027 283.164365 
L 126.211209 292.953759 
L 126.788299 277.034706 
L 127.36539 287.717296 
L 127.942481 290.826994 
L 128.519571 289.552136 
L 129.096662 288.624621 
L 129.673753 291.538167 
L 130.250843 287.674841 
L 130.827934 287.691944 
L 131.405025 291.180687 
L 131.982115 291.734666 
L 132.559206 292.114125 
L 133.136297 288.836283 
L 133.713387 287.324396 
L 134.290478 281.366531 
L 134.867569 291.318723 
L 135.44466 291.641221 
L 136.02175 285.241886 
L 136.598841 293.610522 
L 137.175932 293.01279 
L 137.753022 291.686596 
L 138.330113 293.765732 
L 138.907204 292.088687 
L 139.484294 270.590789 
L 140.061385 273.422943 
L 140.638476 289.624361 
L 141.215566 292.967688 
L 141.792657 290.124542 
L 142.369748 292.25308 
L 142.946838 291.235618 
L 144.10102 294.892089 
L 144.67811 295.029672 
L 145.255201 293.932414 
L 145.832292 293.806227 
L 146.409382 295.410354 
L 146.986473 294.819598 
L 147.563564 295.000776 
L 148.140655 294.86378 
L 149.294836 291.988251 
L 149.871927 291.739282 
L 150.449017 292.126863 
L 151.026108 293.084274 
L 151.603199 295.659919 
L 152.180289 295.274817 
L 152.75738 295.888233 
L 153.334471 296.753127 
L 153.911561 296.772144 
L 154.488652 291.928215 
L 155.065743 294.768732 
L 155.642833 290.635645 
L 156.797015 296.283198 
L 157.374105 292.326657 
L 157.951196 292.704031 
L 158.528287 297.17832 
L 159.105377 295.560996 
L 159.682468 295.692883 
L 160.259559 295.337025 
L 160.83665 296.878107 
L 161.41374 296.726798 
L 161.990831 293.191389 
L 162.567922 295.033007 
L 163.145012 294.583828 
L 163.722103 295.990005 
L 164.299194 290.237112 
L 164.876284 296.408655 
L 165.453375 292.506829 
L 166.030466 295.078861 
L 166.607556 296.557761 
L 167.184647 296.817029 
L 167.761738 296.607688 
L 168.338828 295.128543 
L 168.915919 297.316913 
L 169.49301 295.730794 
L 170.0701 296.356239 
L 170.647191 295.134324 
L 171.224282 297.575164 
L 171.801372 295.541346 
L 172.378463 297.484942 
L 172.955554 295.83128 
L 173.532644 292.421589 
L 174.686826 295.946111 
L 175.263917 293.463341 
L 175.841007 298.004198 
L 176.418098 296.611134 
L 176.995189 294.426144 
L 177.572279 298.667284 
L 178.14937 293.701071 
L 178.726461 297.098861 
L 179.303551 297.802943 
L 179.880642 297.86235 
L 180.457733 297.074217 
L 181.034823 294.019849 
L 181.611914 298.427971 
L 182.189005 298.00982 
L 182.766095 296.742295 
L 183.343186 295.813757 
L 183.920277 294.083475 
L 184.497367 297.113302 
L 185.651549 299.049872 
L 186.228639 297.446896 
L 186.80573 294.890252 
L 187.382821 299.112038 
L 187.959912 298.429832 
L 188.537002 293.077008 
L 189.114093 297.257879 
L 189.691184 295.656873 
L 190.268274 294.558006 
L 190.845365 297.055907 
L 191.422456 298.299574 
L 191.999546 297.544212 
L 192.576637 295.595759 
L 193.153728 292.817251 
L 193.730818 290.83133 
L 194.307909 298.64719 
L 194.885 297.07016 
L 195.46209 297.940363 
L 196.039181 297.529916 
L 196.616272 296.547979 
L 197.193362 293.85942 
L 197.770453 297.65948 
L 198.347544 298.266704 
L 198.924634 298.152315 
L 199.501725 297.489297 
L 200.078816 298.35541 
L 200.655907 296.946176 
L 201.232997 296.628995 
L 201.810088 298.707952 
L 202.387179 296.957093 
L 202.964269 298.33483 
L 203.54136 297.942 
L 205.272632 297.554545 
L 205.849723 294.416092 
L 206.426813 297.406995 
L 207.003904 297.964076 
L 207.580995 296.888132 
L 208.158085 299.265366 
L 208.735176 298.373828 
L 209.312267 298.596544 
L 210.466448 298.212426 
L 211.043539 299.047945 
L 211.620629 295.732004 
L 212.19772 299.165808 
L 212.774811 299.463896 
L 213.351902 298.462369 
L 213.928992 299.171649 
L 214.506083 299.336038 
L 215.083174 298.151606 
L 215.660264 297.499245 
L 216.237355 299.300035 
L 216.814446 297.300042 
L 217.391536 297.108772 
L 217.968627 295.161775 
L 218.545718 299.28152 
L 219.122808 298.368215 
L 219.699899 298.162816 
L 220.27699 296.986617 
L 220.85408 296.770412 
L 221.431171 297.938145 
L 222.008262 296.981872 
L 222.585352 298.434468 
L 223.162443 296.37313 
L 223.739534 298.696473 
L 224.316624 297.975275 
L 224.893715 300.237514 
L 225.470806 298.43358 
L 226.047897 298.012535 
L 226.624987 298.402972 
L 227.779169 299.967465 
L 228.356259 298.439512 
L 228.93335 298.725204 
L 229.510441 297.209233 
L 230.087531 297.552406 
L 230.664622 297.136435 
L 231.241713 297.695615 
L 231.818803 298.931289 
L 232.395894 297.982428 
L 232.972985 298.657546 
L 233.550075 298.366162 
L 234.127166 298.557163 
L 234.704257 299.60666 
L 235.281347 299.580801 
L 236.435529 299.049177 
L 237.012619 299.10394 
L 237.58971 299.548873 
L 238.166801 298.111752 
L 238.743892 297.40774 
L 239.320982 299.011104 
L 240.475164 300.007847 
L 241.052254 299.495748 
L 241.629345 299.565908 
L 242.206436 298.064799 
L 242.783526 298.003884 
L 243.360617 295.919371 
L 243.937708 298.208697 
L 244.514798 299.189607 
L 245.091889 297.639959 
L 245.66898 298.678803 
L 246.24607 298.97886 
L 246.823161 300.105373 
L 247.400252 298.548416 
L 247.977342 296.496914 
L 248.554433 297.630669 
L 249.131524 299.13045 
L 249.708614 297.909111 
L 250.285705 300.04802 
L 250.862796 298.982066 
L 251.439887 299.608278 
L 252.016977 299.753539 
L 252.594068 300.267634 
L 253.171159 297.924553 
L 253.748249 300.022624 
L 254.32534 296.793326 
L 254.902431 299.494077 
L 255.479521 298.870992 
L 256.056612 297.60854 
L 256.633703 297.597919 
L 257.210793 299.847318 
L 257.787884 299.468425 
L 258.364975 300.433519 
L 258.942065 297.015598 
L 259.519156 300.354801 
L 260.096247 298.646439 
L 260.673337 298.987394 
L 261.250428 300.679864 
L 261.827519 299.56008 
L 262.404609 299.285912 
L 262.9817 299.140557 
L 263.558791 296.312946 
L 264.135881 297.431477 
L 264.712972 300.222804 
L 265.290063 299.872812 
L 265.867154 299.023473 
L 266.444244 298.816179 
L 267.021335 296.658895 
L 267.598426 299.018969 
L 268.175516 300.601357 
L 268.752607 295.278779 
L 269.329698 297.286199 
L 269.906788 300.009352 
L 270.483879 299.033769 
L 271.06097 299.925047 
L 271.63806 298.450853 
L 272.215151 299.488041 
L 272.792242 299.332513 
L 273.369332 299.499226 
L 273.946423 298.781298 
L 274.523514 299.816498 
L 275.100604 297.134821 
L 275.677695 297.091255 
L 276.254786 300.211041 
L 276.831876 299.844498 
L 277.408967 297.935614 
L 277.986058 300.205646 
L 278.563149 299.76291 
L 279.140239 300.305981 
L 279.71733 297.449721 
L 280.294421 298.945359 
L 280.871511 299.566806 
L 282.025693 299.154103 
L 282.602783 298.461397 
L 283.179874 300.116647 
L 283.756965 299.087205 
L 284.334055 297.020974 
L 284.911146 298.861939 
L 286.065327 298.617828 
L 286.642418 298.768503 
L 287.219509 299.726113 
L 287.796599 300.391815 
L 288.37369 300.426865 
L 288.950781 300.595304 
L 289.527871 299.903437 
L 290.104962 299.571616 
L 290.682053 297.621005 
L 291.259144 300.141773 
L 292.413325 298.61733 
L 293.567506 299.404 
L 294.144597 299.493344 
L 294.721688 300.055463 
L 295.298778 299.175453 
L 295.875869 299.313255 
L 296.45296 298.483256 
L 297.03005 298.717736 
L 297.607141 298.692581 
L 298.184232 297.158205 
L 298.761322 298.180798 
L 299.338413 298.557444 
L 299.915504 297.99947 
L 300.492594 299.642743 
L 301.069685 299.259193 
L 301.646776 299.840818 
L 302.223866 300.690186 
L 302.800957 300.580698 
L 303.378048 300.892094 
L 303.955139 299.812622 
L 304.532229 299.729986 
L 305.10932 300.359614 
L 305.686411 300.659623 
L 306.263501 299.482152 
L 306.840592 299.392104 
L 307.417683 299.982325 
L 307.994773 300.017641 
L 308.571864 299.238989 
L 309.148955 299.942871 
L 309.726045 300.362193 
L 310.303136 299.356788 
L 310.880227 300.308689 
L 311.457317 300.028845 
L 312.034408 300.0782 
L 312.611499 300.619712 
L 313.188589 298.919185 
L 313.76568 298.790312 
L 314.342771 299.554562 
L 314.919861 297.809654 
L 315.496952 299.485513 
L 316.074043 300.058586 
L 316.651134 301.043236 
L 317.228224 300.422352 
L 317.805315 299.010288 
L 318.382406 300.343893 
L 318.959496 300.565206 
L 319.536587 301.341583 
L 320.113678 299.703549 
L 320.690768 300.379792 
L 321.267859 300.31069 
L 321.84495 300.552414 
L 322.42204 300.250609 
L 322.999131 300.888315 
L 324.153312 299.838136 
L 324.730403 301.184704 
L 325.307494 300.774486 
L 325.884584 298.575848 
L 326.461675 299.656416 
L 327.038766 300.374515 
L 327.615856 300.613697 
L 328.192947 300.560179 
L 328.770038 298.315366 
L 329.347129 299.764925 
L 329.924219 299.846115 
L 330.50131 300.640405 
L 331.078401 300.51269 
L 331.655491 299.08952 
L 332.232582 298.298475 
L 332.809673 301.096819 
L 333.386763 300.927525 
L 333.963854 299.186643 
L 334.540945 300.584483 
L 335.118035 301.017966 
L 336.272217 300.246855 
L 336.849307 300.66742 
L 337.426398 299.680968 
L 338.003489 300.55746 
L 338.580579 300.310011 
L 339.15767 299.81725 
L 339.734761 299.795765 
L 340.311851 298.917841 
L 340.888942 300.690731 
L 341.466033 301.22697 
L 342.043124 299.679684 
L 342.620214 299.77745 
L 343.197305 300.638668 
L 343.774396 300.54763 
L 344.351486 301.311675 
L 344.928577 300.312155 
L 345.505668 300.067277 
L 346.082758 300.701874 
L 346.659849 300.506815 
L 347.23694 300.709129 
L 347.81403 299.823351 
L 348.391121 300.744892 
L 348.968212 298.789278 
L 349.545302 300.887187 
L 350.122393 298.677881 
L 350.699484 299.286133 
L 351.276574 299.188885 
L 351.853665 300.471015 
L 352.430756 300.599347 
L 353.007846 297.370628 
L 353.584937 297.773458 
L 354.162028 299.782 
L 354.739119 300.748478 
L 355.316209 300.91798 
L 355.8933 299.704849 
L 356.470391 299.200203 
L 357.047481 299.986444 
L 357.624572 297.165641 
L 358.201663 300.199309 
L 358.778753 300.954715 
L 359.355844 300.422776 
L 359.932935 300.199059 
L 360.510025 300.861737 
L 361.087116 300.873448 
L 362.241297 300.762026 
L 362.818388 300.224715 
L 363.395479 300.504004 
L 363.972569 300.494773 
L 364.54966 301.027577 
L 365.126751 300.032598 
L 365.703841 300.881544 
L 366.858023 300.980837 
L 367.435113 300.982279 
L 368.589295 299.524799 
L 369.166386 299.534993 
L 369.743476 300.585668 
L 370.320567 300.994298 
L 370.897658 301.153459 
L 371.474748 299.849197 
L 372.051839 300.23918 
L 372.62893 300.763831 
L 373.20602 300.502856 
L 373.783111 300.798512 
L 374.937292 299.892561 
L 375.514383 300.259656 
L 376.091474 300.372345 
L 376.668564 300.100215 
L 377.245655 299.345746 
L 377.822746 300.564142 
L 378.399836 299.38955 
L 378.976927 300.504505 
L 379.554018 300.484241 
L 380.131108 300.764858 
L 380.708199 300.329759 
L 381.28529 301.001524 
L 381.862381 301.009568 
L 382.439471 300.137994 
L 383.016562 301.132026 
L 383.593653 300.94263 
L 384.170743 298.459458 
L 384.747834 298.684989 
L 385.324925 301.018131 
L 385.902015 299.992873 
L 386.479106 301.221244 
L 387.056197 299.985246 
L 387.633287 300.725411 
L 389.94165 300.465273 
L 390.518741 299.998416 
L 391.095831 300.870236 
L 391.672922 299.145792 
L 392.250013 300.528318 
L 392.827103 300.519005 
L 393.404194 300.206611 
L 393.981285 300.367069 
L 394.558376 300.924721 
L 395.135466 300.929587 
L 395.712557 299.948633 
L 396.289648 301.484191 
L 396.866738 300.253884 
L 397.443829 299.357335 
L 398.02092 299.100387 
L 399.175101 301.180238 
L 399.752192 300.234079 
L 400.329282 300.234505 
L 400.906373 300.939025 
L 401.483464 299.542555 
L 402.060554 298.876334 
L 402.637645 301.337202 
L 403.214736 300.929456 
L 403.791826 300.292659 
L 404.368917 300.611995 
L 404.946008 300.76229 
L 405.523098 301.078022 
L 406.100189 300.421868 
L 406.67728 300.211657 
L 407.254371 301.018457 
L 407.831461 300.833402 
L 408.408552 301.163286 
L 408.985643 300.918305 
L 409.562733 300.894091 
L 410.139824 300.75792 
L 410.716915 300.990768 
L 411.294005 300.138944 
L 411.871096 300.969055 
L 412.448187 300.52323 
L 413.025277 300.560531 
L 413.602368 299.737069 
L 414.179459 300.448334 
L 414.756549 300.799181 
L 415.33364 300.853189 
L 415.910731 300.751016 
L 416.487821 298.376921 
L 417.064912 298.664672 
L 417.642003 300.187641 
L 418.219093 300.515365 
L 418.796184 301.067399 
L 419.950366 301.036102 
L 420.527456 301.167219 
L 421.104547 300.848978 
L 421.681638 300.206123 
L 422.258728 299.937031 
L 422.835819 300.875786 
L 423.41291 299.999529 
L 423.99 299.932175 
L 424.567091 300.620741 
L 425.144182 300.454156 
L 425.721272 299.663251 
L 426.298363 300.919872 
L 426.875454 301.332117 
L 427.452544 300.767247 
L 428.029635 300.416364 
L 428.606726 301.040287 
L 429.183816 300.863084 
L 429.760907 299.916027 
L 430.337998 300.424818 
L 430.915088 300.680495 
L 431.492179 300.188374 
L 432.06927 300.700932 
L 433.223451 299.928299 
L 433.800542 301.220549 
L 434.377633 299.343391 
L 434.954723 300.92498 
L 435.531814 300.391746 
L 436.108905 300.218249 
L 436.685995 300.738038 
L 437.840177 300.745298 
L 438.417267 300.307593 
L 438.994358 300.153236 
L 439.571449 300.786969 
L 440.148539 300.499695 
L 440.72563 299.903753 
L 441.302721 300.214091 
L 442.456902 299.306328 
L 443.611083 300.802551 
L 444.188174 300.177572 
L 445.342356 301.065516 
L 445.919446 300.628963 
L 446.496537 300.987426 
L 447.073628 300.469426 
L 447.650718 300.902188 
L 448.227809 300.857157 
L 448.8049 299.49064 
L 449.38199 300.532771 
L 449.959081 300.037641 
L 450.536172 299.310918 
L 451.113262 300.576797 
L 451.690353 300.825069 
L 452.267444 300.794794 
L 452.844534 300.891358 
L 453.421625 300.76872 
L 453.998716 299.851754 
L 454.575806 299.804787 
L 455.152897 300.517949 
L 456.307078 300.379694 
L 456.884169 300.459932 
L 458.03835 300.317547 
L 458.615441 299.764149 
L 459.192532 300.510913 
L 459.769623 300.578398 
L 460.923804 300.352074 
L 462.077985 300.37574 
L 462.655076 300.662575 
L 463.232167 300.693299 
L 463.809257 301.18409 
L 464.386348 300.835991 
L 464.963439 301.223681 
L 465.540529 301.108685 
L 466.11762 300.42871 
L 466.694711 300.078794 
L 467.271801 300.95979 
L 469.003073 301.056146 
L 469.580164 300.397585 
L 470.157255 300.264683 
L 470.734345 300.69114 
L 471.311436 299.1603 
L 471.888527 300.331996 
L 472.465618 300.150651 
L 473.042708 300.758316 
L 473.619799 300.892303 
L 474.19689 300.440085 
L 475.351071 300.381182 
L 475.928162 299.95853 
L 476.505252 300.088347 
L 477.082343 299.898944 
L 478.236524 300.054766 
L 478.813615 299.150187 
L 479.390706 300.364982 
L 479.967796 300.064947 
L 480.544887 300.180352 
L 481.121978 300.045107 
L 481.699068 300.926312 
L 482.276159 299.199722 
L 482.85325 298.576007 
L 483.43034 299.954402 
L 484.007431 299.970275 
L 484.584522 299.83086 
L 485.161613 300.8418 
L 485.738703 300.478515 
L 486.315794 300.998227 
L 486.892885 300.73415 
L 487.469975 301.176913 
L 488.047066 300.891813 
L 488.624157 300.325765 
L 489.201247 301.029767 
L 489.778338 300.447074 
L 490.355429 300.687267 
L 490.932519 301.145531 
L 491.50961 300.596909 
L 492.086701 300.460167 
L 494.972154 300.836761 
L 495.549245 299.863245 
L 496.126335 298.404185 
L 497.280517 300.154662 
L 497.857608 299.159719 
L 498.434698 300.131372 
L 499.011789 300.122502 
L 499.58888 298.930257 
L 500.16597 299.032416 
L 500.743061 300.176948 
L 501.320152 299.642196 
L 501.897242 299.551476 
L 502.474333 300.508061 
L 503.051424 300.28599 
L 503.628514 300.571142 
L 504.205605 300.586776 
L 504.782696 300.897267 
L 505.359786 300.620384 
L 506.513968 299.453431 
L 507.091058 300.199665 
L 507.668149 298.702424 
L 508.24524 300.796059 
L 509.399421 300.417585 
L 509.976512 301.184966 
L 511.130693 300.641745 
L 511.707784 299.57286 
L 512.284875 301.216163 
L 512.861965 300.549165 
L 513.439056 299.344609 
L 514.016147 300.550035 
L 514.593237 301.134525 
L 515.170328 300.396104 
L 515.747419 301.010338 
L 516.324509 299.816089 
L 516.9016 301.055849 
L 517.478691 299.298052 
L 518.055781 299.365209 
L 518.632872 300.457341 
L 519.209963 300.084979 
L 519.787053 300.498049 
L 520.364144 300.529912 
L 520.941235 300.08037 
L 521.518325 300.010434 
L 522.095416 300.097011 
L 522.672507 300.515918 
L 524.98087 300.608216 
L 525.55796 300.219565 
L 526.135051 300.625881 
L 527.289232 300.022018 
L 527.866323 300.773919 
L 528.443414 300.518313 
L 529.597595 300.330553 
L 530.174686 299.760229 
L 530.751776 300.696075 
L 531.328867 300.505748 
L 531.905958 300.526051 
L 532.483048 300.395916 
L 533.63723 300.756708 
L 534.21432 300.103574 
L 534.791411 300.43349 
L 535.368502 300.135052 
L 535.945593 300.841806 
L 536.522683 300.072719 
L 537.099774 300.435224 
L 537.676865 300.629179 
L 538.831046 300.523774 
L 539.408137 300.046283 
L 539.985227 299.870028 
L 539.985227 299.870028 
" style="fill:none;stroke:#dd8452;stroke-dasharray:6,2.25;stroke-dashoffset:0;stroke-width:1.5;"/>
   </g>
   <g id="line2d_21"/>
   <g id="line2d_22"/>
   <g id="line2d_23"/>
   <g id="line2d_24"/>
   <g id="patch_3">
    <path d="M 55.835 309.54 
L 55.835 16.96 
" style="fill:none;stroke:#cccccc;stroke-linecap:square;stroke-linejoin:miter;stroke-width:1.25;"/>
   </g>
   <g id="patch_4">
    <path d="M 563.04 309.54 
L 563.04 16.96 
" style="fill:none;stroke:#cccccc;stroke-linecap:square;stroke-linejoin:miter;stroke-width:1.25;"/>
   </g>
   <g id="patch_5">
    <path d="M 55.835 309.54 
L 563.04 309.54 
" style="fill:none;stroke:#cccccc;stroke-linecap:square;stroke-linejoin:miter;stroke-width:1.25;"/>
   </g>
   <g id="patch_6">
    <path d="M 55.835 16.96 
L 563.04 16.96 
" style="fill:none;stroke:#cccccc;stroke-linecap:square;stroke-linejoin:miter;stroke-width:1.25;"/>
   </g>
   <g id="legend_1">
    <g id="patch_7">
     <path d="M 469.440625 120.948125 
L 555.34 120.948125 
Q 557.54 120.948125 557.54 118.748125 
L 557.54 24.66 
Q 557.54 22.46 555.34 22.46 
L 469.440625 22.46 
Q 467.240625 22.46 467.240625 24.66 
L 467.240625 118.748125 
Q 467.240625 120.948125 469.440625 120.948125 
z
" style="fill:#ffffff;opacity:0.8;stroke:#cccccc;stroke-linejoin:miter;"/>
    </g>
    <g id="text_19">
     <!-- Model -->
     <g style="fill:#262626;" transform="translate(480.440625 35.449375)scale(0.12 -0.12)">
      <defs>
       <path d="M 7.421875 0 
L 7.421875 71.578125 
L 21.6875 71.578125 
L 38.625 20.90625 
Q 40.96875 13.8125 42.046875 10.296875 
Q 43.265625 14.203125 45.84375 21.78125 
L 62.984375 71.578125 
L 75.734375 71.578125 
L 75.734375 0 
L 66.609375 0 
L 66.609375 59.90625 
L 45.796875 0 
L 37.25 0 
L 16.546875 60.9375 
L 16.546875 0 
z
" id="ArialMT-77"/>
       <path d="M 40.234375 0 
L 40.234375 6.546875 
Q 35.296875 -1.171875 25.734375 -1.171875 
Q 19.53125 -1.171875 14.328125 2.25 
Q 9.125 5.671875 6.265625 11.796875 
Q 3.421875 17.921875 3.421875 25.875 
Q 3.421875 33.640625 6 39.96875 
Q 8.59375 46.296875 13.765625 49.65625 
Q 18.953125 53.03125 25.34375 53.03125 
Q 30.03125 53.03125 33.6875 51.046875 
Q 37.359375 49.078125 39.65625 45.90625 
L 39.65625 71.578125 
L 48.390625 71.578125 
L 48.390625 0 
z
M 12.453125 25.875 
Q 12.453125 15.921875 16.640625 10.984375 
Q 20.84375 6.0625 26.5625 6.0625 
Q 32.328125 6.0625 36.34375 10.765625 
Q 40.375 15.484375 40.375 25.140625 
Q 40.375 35.796875 36.265625 40.765625 
Q 32.171875 45.75 26.171875 45.75 
Q 20.3125 45.75 16.375 40.96875 
Q 12.453125 36.1875 12.453125 25.875 
z
" id="ArialMT-100"/>
       <path d="M 42.09375 16.703125 
L 51.171875 15.578125 
Q 49.03125 7.625 43.21875 3.21875 
Q 37.40625 -1.171875 28.375 -1.171875 
Q 17 -1.171875 10.328125 5.828125 
Q 3.65625 12.84375 3.65625 25.484375 
Q 3.65625 38.578125 10.390625 45.796875 
Q 17.140625 53.03125 27.875 53.03125 
Q 38.28125 53.03125 44.875 45.953125 
Q 51.46875 38.875 51.46875 26.03125 
Q 51.46875 25.25 51.421875 23.6875 
L 12.75 23.6875 
Q 13.234375 15.140625 17.578125 10.59375 
Q 21.921875 6.0625 28.421875 6.0625 
Q 33.25 6.0625 36.671875 8.59375 
Q 40.09375 11.140625 42.09375 16.703125 
z
M 13.234375 30.90625 
L 42.1875 30.90625 
Q 41.609375 37.453125 38.875 40.71875 
Q 34.671875 45.796875 27.984375 45.796875 
Q 21.921875 45.796875 17.796875 41.75 
Q 13.671875 37.703125 13.234375 30.90625 
z
" id="ArialMT-101"/>
       <path d="M 6.390625 0 
L 6.390625 71.578125 
L 15.1875 71.578125 
L 15.1875 0 
z
" id="ArialMT-108"/>
      </defs>
      <use xlink:href="#ArialMT-77"/>
      <use x="83.300781" xlink:href="#ArialMT-111"/>
      <use x="138.916016" xlink:href="#ArialMT-100"/>
      <use x="194.53125" xlink:href="#ArialMT-101"/>
      <use x="250.146484" xlink:href="#ArialMT-108"/>
     </g>
    </g>
    <g id="line2d_25">
     <path d="M 471.640625 47.357969 
L 493.640625 47.357969 
" style="fill:none;stroke:#4c72b0;stroke-linecap:round;stroke-width:1.5;"/>
    </g>
    <g id="line2d_26"/>
    <g id="text_20">
     <!-- MLP -->
     <g style="fill:#262626;" transform="translate(502.440625 51.207969)scale(0.11 -0.11)">
      <defs>
       <path d="M 7.71875 0 
L 7.71875 71.578125 
L 34.71875 71.578125 
Q 41.84375 71.578125 45.609375 70.90625 
Q 50.875 70.015625 54.4375 67.546875 
Q 58.015625 65.09375 60.1875 60.640625 
Q 62.359375 56.203125 62.359375 50.875 
Q 62.359375 41.75 56.546875 35.421875 
Q 50.734375 29.109375 35.546875 29.109375 
L 17.1875 29.109375 
L 17.1875 0 
z
M 17.1875 37.546875 
L 35.6875 37.546875 
Q 44.875 37.546875 48.734375 40.96875 
Q 52.59375 44.390625 52.59375 50.59375 
Q 52.59375 55.078125 50.3125 58.265625 
Q 48.046875 61.46875 44.34375 62.5 
Q 41.9375 63.140625 35.5 63.140625 
L 17.1875 63.140625 
z
" id="ArialMT-80"/>
      </defs>
      <use xlink:href="#ArialMT-77"/>
      <use x="83.300781" xlink:href="#ArialMT-76"/>
      <use x="138.916016" xlink:href="#ArialMT-80"/>
     </g>
    </g>
    <g id="line2d_27">
     <path d="M 471.640625 62.917813 
L 493.640625 62.917813 
" style="fill:none;stroke:#dd8452;stroke-linecap:round;stroke-width:1.5;"/>
    </g>
    <g id="line2d_28"/>
    <g id="text_21">
     <!-- CNN -->
     <g style="fill:#262626;" transform="translate(502.440625 66.767813)scale(0.11 -0.11)">
      <defs>
       <path d="M 58.796875 25.09375 
L 68.265625 22.703125 
Q 65.28125 11.03125 57.546875 4.90625 
Q 49.8125 -1.21875 38.625 -1.21875 
Q 27.046875 -1.21875 19.796875 3.484375 
Q 12.546875 8.203125 8.765625 17.140625 
Q 4.984375 26.078125 4.984375 36.328125 
Q 4.984375 47.515625 9.25 55.828125 
Q 13.53125 64.15625 21.40625 68.46875 
Q 29.296875 72.796875 38.765625 72.796875 
Q 49.515625 72.796875 56.828125 67.328125 
Q 64.15625 61.859375 67.046875 51.953125 
L 57.71875 49.75 
Q 55.21875 57.5625 50.484375 61.125 
Q 45.75 64.703125 38.578125 64.703125 
Q 30.328125 64.703125 24.78125 60.734375 
Q 19.234375 56.78125 16.984375 50.109375 
Q 14.75 43.453125 14.75 36.375 
Q 14.75 27.25 17.40625 20.4375 
Q 20.0625 13.625 25.671875 10.25 
Q 31.296875 6.890625 37.84375 6.890625 
Q 45.796875 6.890625 51.3125 11.46875 
Q 56.84375 16.0625 58.796875 25.09375 
z
" id="ArialMT-67"/>
       <path d="M 7.625 0 
L 7.625 71.578125 
L 17.328125 71.578125 
L 54.9375 15.375 
L 54.9375 71.578125 
L 64.015625 71.578125 
L 64.015625 0 
L 54.296875 0 
L 16.703125 56.25 
L 16.703125 0 
z
" id="ArialMT-78"/>
      </defs>
      <use xlink:href="#ArialMT-67"/>
      <use x="72.216797" xlink:href="#ArialMT-78"/>
      <use x="144.433594" xlink:href="#ArialMT-78"/>
     </g>
    </g>
    <g id="text_22">
     <!-- Data Partition -->
     <g style="fill:#262626;" transform="translate(480.440625 83.043438)scale(0.12 -0.12)">
      <defs>
       <path d="M 7.71875 0 
L 7.71875 71.578125 
L 32.375 71.578125 
Q 40.71875 71.578125 45.125 70.5625 
Q 51.265625 69.140625 55.609375 65.4375 
Q 61.28125 60.640625 64.078125 53.1875 
Q 66.890625 45.75 66.890625 36.1875 
Q 66.890625 28.03125 64.984375 21.734375 
Q 63.09375 15.4375 60.109375 11.296875 
Q 57.125 7.171875 53.578125 4.796875 
Q 50.046875 2.4375 45.046875 1.21875 
Q 40.046875 0 33.546875 0 
z
M 17.1875 8.453125 
L 32.46875 8.453125 
Q 39.546875 8.453125 43.578125 9.765625 
Q 47.609375 11.078125 50 13.484375 
Q 53.375 16.84375 55.25 22.53125 
Q 57.125 28.21875 57.125 36.328125 
Q 57.125 47.5625 53.4375 53.59375 
Q 49.75 59.625 44.484375 61.671875 
Q 40.671875 63.140625 32.234375 63.140625 
L 17.1875 63.140625 
z
" id="ArialMT-68"/>
       <path d="M 40.4375 6.390625 
Q 35.546875 2.25 31.03125 0.53125 
Q 26.515625 -1.171875 21.34375 -1.171875 
Q 12.796875 -1.171875 8.203125 3 
Q 3.609375 7.171875 3.609375 13.671875 
Q 3.609375 17.484375 5.34375 20.625 
Q 7.078125 23.78125 9.890625 25.6875 
Q 12.703125 27.59375 16.21875 28.5625 
Q 18.796875 29.25 24.03125 29.890625 
Q 34.671875 31.15625 39.703125 32.90625 
Q 39.75 34.71875 39.75 35.203125 
Q 39.75 40.578125 37.25 42.78125 
Q 33.890625 45.75 27.25 45.75 
Q 21.046875 45.75 18.09375 43.578125 
Q 15.140625 41.40625 13.71875 35.890625 
L 5.125 37.0625 
Q 6.296875 42.578125 8.984375 45.96875 
Q 11.671875 49.359375 16.75 51.1875 
Q 21.828125 53.03125 28.515625 53.03125 
Q 35.15625 53.03125 39.296875 51.46875 
Q 43.453125 49.90625 45.40625 47.53125 
Q 47.359375 45.171875 48.140625 41.546875 
Q 48.578125 39.3125 48.578125 33.453125 
L 48.578125 21.734375 
Q 48.578125 9.46875 49.140625 6.21875 
Q 49.703125 2.984375 51.375 0 
L 42.1875 0 
Q 40.828125 2.734375 40.4375 6.390625 
z
M 39.703125 26.03125 
Q 34.90625 24.078125 25.34375 22.703125 
Q 19.921875 21.921875 17.671875 20.9375 
Q 15.4375 19.96875 14.203125 18.09375 
Q 12.984375 16.21875 12.984375 13.921875 
Q 12.984375 10.40625 15.640625 8.0625 
Q 18.3125 5.71875 23.4375 5.71875 
Q 28.515625 5.71875 32.46875 7.9375 
Q 36.421875 10.15625 38.28125 14.015625 
Q 39.703125 17 39.703125 22.796875 
z
" id="ArialMT-97"/>
       <path d="M 25.78125 7.859375 
L 27.046875 0.09375 
Q 23.34375 -0.6875 20.40625 -0.6875 
Q 15.625 -0.6875 12.984375 0.828125 
Q 10.359375 2.34375 9.28125 4.8125 
Q 8.203125 7.28125 8.203125 15.1875 
L 8.203125 45.015625 
L 1.765625 45.015625 
L 1.765625 51.859375 
L 8.203125 51.859375 
L 8.203125 64.703125 
L 16.9375 69.96875 
L 16.9375 51.859375 
L 25.78125 51.859375 
L 25.78125 45.015625 
L 16.9375 45.015625 
L 16.9375 14.703125 
Q 16.9375 10.9375 17.40625 9.859375 
Q 17.875 8.796875 18.921875 8.15625 
Q 19.96875 7.515625 21.921875 7.515625 
Q 23.390625 7.515625 25.78125 7.859375 
z
" id="ArialMT-116"/>
       <path id="ArialMT-32"/>
       <path d="M 6.5 0 
L 6.5 51.859375 
L 14.40625 51.859375 
L 14.40625 44 
Q 17.4375 49.515625 20 51.265625 
Q 22.5625 53.03125 25.640625 53.03125 
Q 30.078125 53.03125 34.671875 50.203125 
L 31.640625 42.046875 
Q 28.421875 43.953125 25.203125 43.953125 
Q 22.3125 43.953125 20.015625 42.21875 
Q 17.71875 40.484375 16.75 37.40625 
Q 15.28125 32.71875 15.28125 27.15625 
L 15.28125 0 
z
" id="ArialMT-114"/>
       <path d="M 6.640625 61.46875 
L 6.640625 71.578125 
L 15.4375 71.578125 
L 15.4375 61.46875 
z
M 6.640625 0 
L 6.640625 51.859375 
L 15.4375 51.859375 
L 15.4375 0 
z
" id="ArialMT-105"/>
       <path d="M 6.59375 0 
L 6.59375 51.859375 
L 14.5 51.859375 
L 14.5 44.484375 
Q 20.21875 53.03125 31 53.03125 
Q 35.6875 53.03125 39.625 51.34375 
Q 43.5625 49.65625 45.515625 46.921875 
Q 47.46875 44.1875 48.25 40.4375 
Q 48.734375 37.984375 48.734375 31.890625 
L 48.734375 0 
L 39.9375 0 
L 39.9375 31.546875 
Q 39.9375 36.921875 38.90625 39.578125 
Q 37.890625 42.234375 35.28125 43.8125 
Q 32.671875 45.40625 29.15625 45.40625 
Q 23.53125 45.40625 19.453125 41.84375 
Q 15.375 38.28125 15.375 28.328125 
L 15.375 0 
z
" id="ArialMT-110"/>
      </defs>
      <use xlink:href="#ArialMT-68"/>
      <use x="72.216797" xlink:href="#ArialMT-97"/>
      <use x="127.832031" xlink:href="#ArialMT-116"/>
      <use x="155.615234" xlink:href="#ArialMT-97"/>
      <use x="211.230469" xlink:href="#ArialMT-32"/>
      <use x="239.013672" xlink:href="#ArialMT-80"/>
      <use x="305.712891" xlink:href="#ArialMT-97"/>
      <use x="361.328125" xlink:href="#ArialMT-114"/>
      <use x="394.628906" xlink:href="#ArialMT-116"/>
      <use x="422.412109" xlink:href="#ArialMT-105"/>
      <use x="444.628906" xlink:href="#ArialMT-116"/>
      <use x="472.412109" xlink:href="#ArialMT-105"/>
      <use x="494.628906" xlink:href="#ArialMT-111"/>
      <use x="550.244141" xlink:href="#ArialMT-110"/>
     </g>
    </g>
    <g id="line2d_29">
     <path d="M 471.640625 94.952031 
L 493.640625 94.952031 
" style="fill:none;stroke:#333333;stroke-linecap:round;stroke-width:1.5;"/>
    </g>
    <g id="line2d_30"/>
    <g id="text_23">
     <!-- iid -->
     <g style="fill:#262626;" transform="translate(502.440625 98.802031)scale(0.11 -0.11)">
      <use xlink:href="#ArialMT-105"/>
      <use x="22.216797" xlink:href="#ArialMT-105"/>
      <use x="44.433594" xlink:href="#ArialMT-100"/>
     </g>
    </g>
    <g id="line2d_31">
     <path d="M 471.640625 110.511875 
L 493.640625 110.511875 
" style="fill:none;stroke:#333333;stroke-dasharray:6,2.25;stroke-dashoffset:0;stroke-width:1.5;"/>
    </g>
    <g id="line2d_32"/>
    <g id="text_24">
     <!-- noniid -->
     <g style="fill:#262626;" transform="translate(502.440625 114.361875)scale(0.11 -0.11)">
      <use xlink:href="#ArialMT-110"/>
      <use x="55.615234" xlink:href="#ArialMT-111"/>
      <use x="111.230469" xlink:href="#ArialMT-110"/>
      <use x="166.845703" xlink:href="#ArialMT-105"/>
      <use x="189.0625" xlink:href="#ArialMT-105"/>
      <use x="211.279297" xlink:href="#ArialMT-100"/>
     </g>
    </g>
   </g>
  </g>
 </g>
 <defs>
  <clipPath id="p387d03a4bb">
   <rect height="292.58" width="507.205" x="55.835" y="16.96"/>
  </clipPath>
 </defs>
</svg>
